<?xml version="1.0" encoding="utf-8"?>
<!-- Generator: Adobe Illustrator 21.1.0, SVG Export Plug-In . SVG Version: 6.00 Build 0)  -->
<svg version="1.1" id="Layer_1" xmlns="http://www.w3.org/2000/svg" xmlns:xlink="http://www.w3.org/1999/xlink" x="0px" y="0px"
	 viewBox="0 0 70 70" style="enable-background:new 0 0 70 70;" xml:space="preserve">
<style type="text/css">
	.st0{fill:#75ECEF;}
	.st1{fill:#7986CB;}
	.st2{fill:none;stroke:#F06392;stroke-width:0.75;stroke-miterlimit:10;}
</style>
<g>
	<g>
		<path class="st0" d="M60.1,16.9c-0.3-0.5-1-0.6-1.4-0.3c-0.5,0.3-0.6,1-0.3,1.4c0.3,0.5,1,0.6,1.4,0.3
			C60.3,18,60.4,17.3,60.1,16.9z"/>
	</g>
</g>
<g>
	<g>
		<path class="st0" d="M59.8,49.8c-0.5-0.3-1.1-0.2-1.4,0.3c-0.3,0.5-0.2,1.1,0.3,1.4c0.5,0.3,1.1,0.2,1.4-0.3
			C60.4,50.8,60.3,50.1,59.8,49.8z"/>
	</g>
</g>
<g>
	<g>
		<path class="st0" d="M12.3,16.6c-0.5-0.3-1.1-0.2-1.4,0.3c-0.3,0.5-0.2,1.1,0.3,1.4c0.5,0.3,1.1,0.2,1.4-0.3
			C12.9,17.6,12.8,16.9,12.3,16.6z"/>
	</g>
</g>
<g>
	<g>
		<path class="st0" d="M12.5,50.1c-0.3-0.5-1-0.6-1.4-0.3c-0.5,0.3-0.6,1-0.3,1.4c0.3,0.5,1,0.6,1.4,0.3
			C12.8,51.1,12.9,50.5,12.5,50.1z"/>
	</g>
</g>
<g>
	<g>
		<path class="st1" d="M47.2,20.9c-1.8-1.6-3.9-2.8-6.2-3.6c-2.4-0.8-4.9-1-7.5-0.8c-3.8,0.4-7.4,2.1-10.1,4.8
			c-2.8,2.7-4.6,6.2-5.2,9.9c-0.5,3.3-0.1,6.6,1.2,9.6c1.2,2.9,3.2,5.4,5.7,7.3c0.8,0.6,1.2,1.5,1.2,2.5v2.7v6.7
			c0,1.4,0.9,2.6,2.2,3c0.2,1.6,0.9,3.1,2.1,4.2c1.4,1.4,3.2,2.1,5.1,2.1c3.7,0,6.8-2.8,7.2-6.4c1.2-0.5,2-1.6,2-3v-6.7v-2.7
			c0-1,0.4-1.9,1.2-2.4c2.1-1.6,3.9-3.7,5.1-6.1c1.3-2.5,1.9-5.2,1.9-8C53.1,29,50.9,24.2,47.2,20.9z M35.6,67.4
			c-1.4,0-2.7-0.5-3.7-1.5c-0.7-0.7-1.2-1.6-1.4-2.6h10.2C40.2,65.6,38.1,67.4,35.6,67.4z M42.7,60c0,0.6-0.4,1.1-1,1.1c0,0,0,0,0,0
			c0,0-0.1,0-0.1,0H29.3c-0.6,0-1.1-0.5-1.1-1.1v-1.2l0,0h14.5L42.7,60L42.7,60z M42.7,56.7H28.2v-2.4h3.1h8.3h3.1L42.7,56.7
			L42.7,56.7z M35.4,38.8c1.1,0,2.1-0.2,3.1-0.7v14.2h-6.2V38.1C33.3,38.6,34.4,38.8,35.4,38.8z M32.6,35.8l2.9-5.7l2.9,5.7
			C36.6,37.1,34.3,37.1,32.6,35.8z M44.8,46.4c-1.3,0.9-2.1,2.5-2.1,4.1v1.7h-2.1V36.1c0,0,0-0.1,0-0.1c0,0,0,0,0,0c0,0,0-0.1,0-0.1
			c0,0,0,0,0,0c0,0,0-0.1,0-0.1s0,0,0,0s0-0.1,0-0.1v0v0l0,0l-4.1-8.3c-0.2-0.3-0.5-0.6-0.9-0.6s-0.7,0.2-0.9,0.6l-4.2,8.3l0,0v0v0
			c0,0,0,0.1,0,0.1c0,0,0,0,0,0c0,0,0,0.1,0,0.1c0,0,0,0,0,0c0,0,0,0.1,0,0.1s0,0,0,0c0,0,0,0.1,0,0.1v16.2h-2.1v-1.7
			c0-1.6-0.8-3.2-2.1-4.1c-4.6-3.5-6.9-9.2-6.1-14.9c1-6.7,6.8-12.2,13.6-12.9c4.5-0.5,8.8,0.9,12.1,3.9c3.3,3,5.2,7.2,5.2,11.6
			C51,38.9,48.7,43.5,44.8,46.4z"/>
	</g>
</g>
<g>
	<g>
		<path class="st0" d="M44.4,24C44,23.6,43.3,23.6,43,24c-0.4,0.4-0.3,1.1,0.1,1.5c2.4,2.2,3.8,5.3,3.8,8.5c0,0.6,0.5,1,1,1
			c0.6,0,1-0.5,1-1C48.9,30.2,47.3,26.5,44.4,24z"/>
	</g>
</g>
<g>
	<g>
		<path class="st0" d="M14.7,33H10c-0.6,0-1,0.5-1,1c0,0.6,0.5,1,1,1h4.8c0.6,0,1-0.5,1-1C15.8,33.4,15.3,33,14.7,33z"/>
	</g>
</g>
<g>
	<g>
		<path class="st0" d="M60.9,33h-4.8c-0.6,0-1,0.5-1,1c0,0.6,0.5,1,1,1h4.8c0.6,0,1-0.5,1-1S61.5,33,60.9,33z"/>
	</g>
</g>
<g>
	<g>
		<path class="st0" d="M19.3,45.3c-0.3-0.5-1-0.6-1.4-0.3l-3.4,2.4c-0.5,0.3-0.6,1-0.3,1.4c0.2,0.3,0.5,0.4,0.8,0.4
			c0.2,0,0.4-0.1,0.6-0.2l3.4-2.4C19.5,46.4,19.7,45.8,19.3,45.3z"/>
	</g>
</g>
<g>
	<g>
		<path class="st0" d="M56.7,19.1c-0.3-0.5-1-0.6-1.4-0.3l-3.4,2.4c-0.5,0.3-0.6,1-0.3,1.4c0.2,0.3,0.5,0.4,0.8,0.4
			c0.2,0,0.4-0.1,0.6-0.2l3.4-2.4C56.9,20.3,57,19.6,56.7,19.1z"/>
	</g>
</g>
<g>
	<g>
		<path class="st0" d="M19.1,21.3l-3.4-2.4c-0.5-0.3-1.1-0.2-1.4,0.3c-0.3,0.5-0.2,1.1,0.3,1.4l3.4,2.4c0.2,0.1,0.4,0.2,0.6,0.2
			c0.3,0,0.6-0.1,0.8-0.4C19.7,22.2,19.5,21.6,19.1,21.3z"/>
	</g>
</g>
<g>
	<g>
		<path class="st0" d="M56.4,47.4L53,45c-0.5-0.3-1.1-0.2-1.4,0.3c-0.3,0.5-0.2,1.1,0.3,1.4l3.4,2.4c0.2,0.1,0.4,0.2,0.6,0.2
			c0.3,0,0.6-0.1,0.8-0.4C57,48.4,56.9,47.7,56.4,47.4z"/>
	</g>
</g>
<line class="st2" x1="13.4" y1="9.7" x2="13.4" y2="13.7"/>
<line class="st2" x1="15.4" y1="11.7" x2="11.4" y2="11.7"/>
<circle class="st2" cx="5.9" cy="20.3" r="1.8"/>
<polygon class="st2" points="37.6,6.7 36.5,5.9 35.2,6.3 35.6,5 34.8,3.9 36.2,3.9 37,2.8 37.4,4.1 38.8,4.5 37.6,5.3 "/>
<rect x="50.4" y="11" class="st2" width="2.8" height="2.8"/>
<line class="st2" x1="43" y1="10.3" x2="43" y2="14.3"/>
<line class="st2" x1="45" y1="12.2" x2="41" y2="12.2"/>
</svg>
