<?xml version="1.0" encoding="utf-8"?>
<!-- Generator: Adobe Illustrator 21.1.0, SVG Export Plug-In . SVG Version: 6.00 Build 0)  -->
<svg version="1.1" id="Layer_1" xmlns="http://www.w3.org/2000/svg" xmlns:xlink="http://www.w3.org/1999/xlink" x="0px" y="0px"
	 viewBox="0 0 70 70" style="enable-background:new 0 0 70 70;" xml:space="preserve">
<style type="text/css">
	.st0{fill:#75ECEF;}
	.st1{fill:#7986CB;}
	.st2{fill:none;stroke:#F06392;stroke-width:0.75;stroke-miterlimit:10;}
</style>
<g>
	<g>
		<path class="st0" d="M23.6,22.7c-0.5-0.5-1.2-0.5-1.7,0s-0.5,1.2,0,1.7s1.2,0.5,1.7,0S24,23.2,23.6,22.7z"/>
	</g>
</g>
<g>
	<g>
		<path class="st1" d="M64.1,58L53.3,47.1c2.3-3.6,3.4-7.7,3.4-11.9c0-12.3-10-22.3-22.3-22.3S12,22.9,12,35.2
			c0,4.2,1.2,8.3,3.4,11.9L4.7,58c-0.3,0.3-0.4,0.8-0.3,1.2c0.1,0.4,0.5,0.7,0.9,0.8l6.8,1.3c0.2,0,0.4,0.2,0.6,0.3
			c0.2,0.2,0.3,0.4,0.3,0.6l1.3,6.8c0.1,0.4,0.4,0.8,0.8,0.9c0.1,0,0.2,0,0.3,0c0.3,0,0.6-0.1,0.8-0.3L29,56.9
			c1.8,0.4,3.6,0.7,5.4,0.7c1.8,0,3.6-0.2,5.4-0.7l12.7,12.8c0.2,0.2,0.5,0.3,0.8,0.3c0.1,0,0.2,0,0.3,0c0.4-0.1,0.7-0.5,0.8-0.9
			l1.3-6.8c0-0.2,0.2-0.4,0.3-0.6c0.2-0.2,0.4-0.3,0.6-0.3l6.8-1.3c0.4-0.1,0.8-0.4,0.9-0.8C64.5,58.8,64.4,58.3,64.1,58z
			 M16.2,66.4l-0.9-4.6c-0.1-0.3-0.2-0.6-0.3-0.8l4.1-4.2c0.5-0.5,0.4-1.2,0-1.7c-0.5-0.5-1.2-0.4-1.7,0l-4.1,4.2
			c-0.3-0.1-0.5-0.2-0.8-0.3l-4.6-0.9l9-9.1c2.5,3.2,5.8,5.6,9.6,7L16.2,66.4z M39.8,54.5C39.8,54.5,39.8,54.5,39.8,54.5
			c-1.8,0.5-3.6,0.7-5.4,0.7c-1.8,0-3.7-0.3-5.4-0.7l0,0l0,0c-4.4-1.3-8.3-4-11-7.9c-2.3-3.4-3.6-7.3-3.6-11.4c0-11,9-20,20-20
			s20,9,20,20c0,4.1-1.2,8-3.6,11.4C48.2,50.4,44.3,53.2,39.8,54.5L39.8,54.5z M56.3,59.1c-0.3,0.1-0.6,0.1-0.8,0.3l-3.7-3.8
			c-0.5-0.5-1.2-0.5-1.7,0s-0.5,1.2,0,1.7l3.7,3.8c-0.1,0.3-0.2,0.5-0.3,0.8l-0.9,4.6L42.3,56.1c3.8-1.4,7.1-3.9,9.6-7l9,9.1
			L56.3,59.1z"/>
	</g>
</g>
<g>
	<g>
		<path class="st0" d="M46.1,30.9c-0.1-0.4-0.5-0.7-0.9-0.8l-6.7-1l-3-6.1c-0.2-0.4-0.6-0.7-1-0.7l0,0c-0.4,0-0.9,0.3-1,0.7l-3,6.1
			l-6.7,1c-0.4,0.1-0.8,0.4-0.9,0.8s0,0.9,0.3,1.2l4.9,4.7l-1.1,6.7c-0.1,0.4,0.1,0.9,0.5,1.1c0.4,0.3,0.8,0.3,1.2,0.1l6-3.2l6,3.2
			c0.2,0.1,0.4,0.1,0.5,0.1c0.2,0,0.5-0.1,0.7-0.2c0.4-0.3,0.5-0.7,0.5-1.1l-1.1-6.7l4.9-4.7C46.1,31.8,46.2,31.3,46.1,30.9z
			 M38.8,35.6c-0.3,0.3-0.4,0.7-0.3,1l0.8,4.9l-4.4-2.3c-0.3-0.2-0.7-0.2-1.1,0l-4.4,2.3l0.8-4.9c0.1-0.4-0.1-0.8-0.3-1l-3.6-3.5
			l5-0.7c0.4-0.1,0.7-0.3,0.9-0.6l2.2-4.5l2.2,4.5c0.2,0.3,0.5,0.6,0.9,0.6l5,0.7L38.8,35.6z"/>
	</g>
</g>
<g>
	<g>
		<path class="st0" d="M34.4,17.6c-2.9,0-5.9,0.7-8.4,2.1c-0.6,0.3-0.8,1-0.5,1.6c0.3,0.6,1,0.8,1.6,0.5c2.2-1.2,4.8-1.9,7.3-1.9
			c8.4,0,15.3,6.9,15.3,15.3s-6.9,15.3-15.3,15.3s-15.3-6.9-15.3-15.3c0-2.6,0.6-5.1,1.9-7.3c0.3-0.6,0.1-1.3-0.5-1.6
			c-0.6-0.3-1.3-0.1-1.6,0.5c-1.4,2.6-2.1,5.5-2.1,8.4c0,9.7,7.9,17.6,17.6,17.6S52,44.9,52,35.2S44.1,17.6,34.4,17.6z"/>
	</g>
</g>
<line class="st2" x1="16.8" y1="5.7" x2="16.8" y2="9.8"/>
<line class="st2" x1="18.9" y1="7.7" x2="14.8" y2="7.7"/>
<circle class="st2" cx="6" cy="17.5" r="1.8"/>
<polygon class="st2" points="53.5,7.1 52.4,6.3 51.1,6.8 51.6,5.5 50.8,4.4 52.1,4.4 52.9,3.4 53.3,4.6 54.6,5 53.5,5.8 "/>
<rect x="64.5" y="12.9" class="st2" width="2.8" height="2.8"/>
<line class="st2" x1="53.8" y1="12.8" x2="53.8" y2="17"/>
<line class="st2" x1="55.9" y1="14.9" x2="51.8" y2="14.9"/>
</svg>
