<?xml version="1.0" encoding="utf-8"?>
<!-- Generator: Adobe Illustrator 21.1.0, SVG Export Plug-In . SVG Version: 6.00 Build 0)  -->
<svg version="1.1" id="Layer_1" xmlns="http://www.w3.org/2000/svg" xmlns:xlink="http://www.w3.org/1999/xlink" x="0px" y="0px"
	 viewBox="0 0 70 70" style="enable-background:new 0 0 70 70;" xml:space="preserve">
<style type="text/css">
	.st0{fill:#75ECEF;}
	.st1{fill:#7986CB;}
	.st2{fill:none;stroke:#F06392;stroke-width:0.75;stroke-miterlimit:10;}
</style>
<g>
	<g>
		<path class="st0" d="M20.1,36c-0.6,0-1.1,0.5-1.1,1.1c0,0.6,0.5,1.1,1.1,1.1s1.1-0.5,1.1-1.1C21.1,36.5,20.7,36,20.1,36z"/>
	</g>
</g>
<g>
	<g>
		<path class="st1" d="M59.1,23c-11.8,0-18.2-6.3-20.2-8.4c-0.4-0.4-0.6-0.6-0.9-0.8c-0.3-0.2-0.8-0.2-1.1,0
			c-0.2,0.1-0.3,0.2-0.6,0.5c-0.8,0.8-2.6,2.5-5.4,4.3c-4.7,2.9-9.8,4.4-15.2,4.4c-0.6,0-1.1,0.5-1.1,1.1v14.2
			c0,6.8,2.2,13.3,6.2,18.8c4.4,5.9,10.2,10.2,16.2,12c0.1,0,0.2,0,0.3,0s0.2,0,0.3,0c6-1.8,11.8-6.1,16.2-12
			c4.1-5.5,6.2-12,6.2-18.8V24.1C60.2,23.5,59.7,23,59.1,23z M58,38.3c0,6.4-2,12.4-5.8,17.5c-4.1,5.5-9.3,9.4-14.8,11.1
			c-5.5-1.7-10.7-5.7-14.8-11.1c-3.8-5.1-5.8-11.2-5.8-17.5V25.2c5.4-0.2,10.5-1.8,15.2-4.7c2.6-1.6,4.4-3.3,5.4-4.2
			c2.3,2.3,8.8,8.5,20.6,8.9L58,38.3L58,38.3z"/>
	</g>
</g>
<g>
	<g>
		<path class="st0" d="M54.9,27.1c-6-0.7-11.6-3.1-16.8-7.2c-0.4-0.3-0.9-0.3-1.3,0c-5.1,3.9-11.1,6.5-16.8,7.2
			c-0.6,0.1-1,0.5-1,1.1v4.6c0,0.6,0.5,1.1,1.1,1.1c0.6,0,1.1-0.5,1.1-1.1v-3.7c4.1-0.6,10-2.4,16.2-7c5.1,3.8,10.5,6.2,16.3,7v9.2
			c0,5.4-1.7,10.6-4.9,14.9c-3.1,4.2-7,7.2-11.3,8.8c-4.3-1.6-8.2-4.7-11.3-8.8c-2.6-3.5-4.3-7.6-4.8-11.9c-0.1-0.6-0.6-1-1.2-0.9
			c-0.6,0.1-1,0.6-0.9,1.2c0.6,4.7,2.3,9.2,5.2,13c3.4,4.6,7.8,8,12.7,9.7c0.1,0,0.2,0.1,0.4,0.1s0.2,0,0.4-0.1
			c4.9-1.7,9.2-5.1,12.7-9.7c3.5-4.7,5.4-10.3,5.4-16.2V28.2C55.8,27.7,55.4,27.2,54.9,27.1z"/>
	</g>
</g>
<line class="st2" x1="14.4" y1="11.3" x2="14.4" y2="15.3"/>
<line class="st2" x1="16.4" y1="13.3" x2="12.4" y2="13.3"/>
<circle class="st2" cx="4.7" cy="24.4" r="1.8"/>
<polygon class="st2" points="48.6,7.3 47.5,6.5 46.2,6.9 46.6,5.6 45.9,4.5 47.2,4.5 48,3.5 48.4,4.8 49.7,5.2 48.6,5.9 "/>
<rect x="65.8" y="13.9" class="st2" width="2.8" height="2.8"/>
<line class="st2" x1="55.7" y1="13.1" x2="55.7" y2="17.1"/>
<line class="st2" x1="57.7" y1="15" x2="53.7" y2="15"/>
<g>
	<g id="_x32_37._Locked">
		<g>
			<path class="st0" d="M44.5,37.2V34c0-3.6-3.2-6.5-7.1-6.5s-7.1,2.9-7.1,6.5v3.2c-1.3,0-2.4,1-2.4,2.2v10.8c0,1.2,1.1,2.2,2.4,2.2
				h14.2c1.3,0,2.4-1,2.4-2.2V39.4C46.9,38.2,45.8,37.2,44.5,37.2z M32.7,34c0-2.4,2.1-4.3,4.7-4.3s4.7,1.9,4.7,4.3v3.2h-9.5
				L32.7,34L32.7,34L32.7,34z M44.5,50.2H30.3V39.4h14.2V50.2L44.5,50.2z M36.2,45.6V47c0,0.6,0.6,1.1,1.2,1.1
				c0.7,0,1.2-0.5,1.2-1.1v-1.4c0.7-0.4,1.2-1.1,1.2-1.9c0-1.2-1.1-2.2-2.4-2.2s-2.4,1-2.4,2.2C35,44.5,35.5,45.2,36.2,45.6z"/>
		</g>
	</g>
</g>
</svg>
