<svg version="1.1" xmlns="http://www.w3.org/2000/svg" xmlns:xlink="http://www.w3.org/1999/xlink" width="16" height="15" viewBox="0 0 16 15">
<g id="box-green">
<path id="box-green" d="M15.500,6.990 C15.500,6.990 9.000,6.990 9.000,6.990 L9.000,4.987 L7.000,4.987 L7.000,6.990 C7.000,6.990 0.500,6.990 0.500,6.990 C0.224,6.990 -0.000,6.765 -0.000,6.489 C-0.000,6.489 -0.000,4.987 -0.000,4.987 C-0.000,4.436 0.449,3.986 1.000,3.986 C1.000,3.986 4.164,3.986 4.164,3.986 C3.937,3.831 3.742,3.677 3.605,3.538 C2.800,2.726 2.800,1.405 3.606,0.593 C4.389,-0.196 5.755,-0.196 6.539,0.593 C6.972,1.028 8.122,2.801 7.964,3.986 C7.964,3.986 8.036,3.986 8.036,3.986 C7.877,2.801 9.027,1.028 9.461,0.593 C10.244,-0.196 11.610,-0.198 12.394,0.593 C13.201,1.405 13.201,2.726 12.394,3.538 C12.258,3.677 12.063,3.831 11.836,3.986 C11.836,3.986 15.000,3.986 15.000,3.986 C15.552,3.986 16.000,4.436 16.000,4.987 C16.000,4.987 16.000,6.489 16.000,6.489 C16.000,6.765 15.776,6.990 15.500,6.990 zM5.830,1.299 C5.627,1.094 5.358,0.982 5.073,0.982 C4.787,0.982 4.518,1.094 4.315,1.299 C3.896,1.721 3.896,2.410 4.315,2.832 C4.746,3.267 6.065,3.986 6.756,3.986 C6.899,3.986 6.941,3.953 6.941,3.953 C7.174,3.712 6.504,1.977 5.830,1.299 zM11.685,1.299 C11.278,0.889 10.573,0.891 10.170,1.299 C9.496,1.977 8.826,3.712 9.059,3.953 C9.059,3.954 9.101,3.986 9.243,3.986 C9.935,3.986 11.254,3.267 11.685,2.832 C12.105,2.410 12.105,1.721 11.685,1.299 zM7.000,15.000 C7.000,15.000 2.000,15.000 2.000,15.000 C1.449,15.000 1.000,14.551 1.000,13.999 C1.000,13.999 1.000,7.991 1.000,7.991 L7.000,7.991 L7.000,15.000 zM15.000,13.999 C15.000,14.551 14.552,15.000 14.000,15.000 C14.000,15.000 9.000,15.000 9.000,15.000 L9.000,7.991 L15.000,7.991 C15.000,7.991 15.000,13.999 15.000,13.999 z" fill="#08D196" />
</g>
</svg>
