<?xml version="1.0" encoding="utf-8"?>
<!-- Generator: Adobe Illustrator 21.1.0, SVG Export Plug-In . SVG Version: 6.00 Build 0)  -->
<svg version="1.1" id="Layer_1" xmlns="http://www.w3.org/2000/svg" xmlns:xlink="http://www.w3.org/1999/xlink" x="0px" y="0px"
	 viewBox="0 0 20 20" style="enable-background:new 0 0 20 20;" xml:space="preserve">
<style type="text/css">
	.st0{fill:#7986CB;}
</style>
<g>
	<path class="st0" d="M10,0C4.5,0,0,4.5,0,10s4.5,10,10,10s10-4.5,10-10S15.5,0,10,0z M10,18.3c-4.6,0-8.2-3.7-8.2-8.2
		S5.4,1.8,10,1.8s8.2,3.7,8.2,8.2S14.6,18.3,10,18.3z"/>
	<path class="st0" d="M13.3,6.8l-4.7,4.7L6.5,9.2c-0.4-0.4-0.9-0.4-1.2,0s-0.4,0.9,0,1.2L8,13.3c0.2,0.2,0.4,0.3,0.6,0.3
		s0.4-0.1,0.6-0.3L14.5,8c0.4-0.4,0.4-0.9,0-1.2C14.2,6.4,13.7,6.4,13.3,6.8z"/>
</g>
</svg>