<svg version="1.1" xmlns="http://www.w3.org/2000/svg" xmlns:xlink="http://www.w3.org/1999/xlink" width="127" height="45" viewBox="0 0 127 45">
<g id="coupon">
<path id="coupon" d="M127.000,14.938 C127.000,14.938 127.000,6.000 127.000,6.000 C127.000,2.686 124.314,0.000 121.000,0.000 C121.000,0.000 6.000,0.000 6.000,0.000 C2.686,0.000 0.000,2.686 0.000,6.000 C0.000,6.000 0.000,14.938 0.000,14.938 C4.177,14.938 7.562,18.323 7.562,22.500 C7.562,26.677 4.177,30.062 0.000,30.062 C0.000,30.062 0.000,39.000 0.000,39.000 C0.000,42.314 2.686,45.000 6.000,45.000 C6.000,45.000 121.000,45.000 121.000,45.000 C124.314,45.000 127.000,42.314 127.000,39.000 C127.000,39.000 127.000,30.062 127.000,30.062 C122.823,30.062 119.438,26.677 119.438,22.500 C119.438,18.323 122.823,14.938 127.000,14.938 zM87.313,37.590 C87.313,38.209 86.806,38.715 86.188,38.715 C85.569,38.715 85.063,38.209 85.063,37.590 C85.063,37.590 85.063,35.207 85.063,35.207 C85.063,34.588 85.569,34.082 86.188,34.082 C86.806,34.082 87.313,34.588 87.313,35.207 C87.313,35.207 87.313,37.590 87.313,37.590 zM87.313,28.324 C87.313,28.943 86.806,29.449 86.188,29.449 C85.569,29.449 85.063,28.943 85.063,28.324 C85.063,28.324 85.063,25.941 85.063,25.941 C85.063,25.323 85.569,24.816 86.188,24.816 C86.806,24.816 87.313,25.323 87.313,25.941 C87.313,25.941 87.313,28.324 87.313,28.324 zM87.313,19.059 C87.313,19.677 86.806,20.184 86.188,20.184 C85.569,20.184 85.063,19.677 85.063,19.059 C85.063,19.059 85.063,16.676 85.063,16.676 C85.063,16.057 85.569,15.551 86.188,15.551 C86.806,15.551 87.313,16.057 87.313,16.676 C87.313,16.676 87.313,19.059 87.313,19.059 zM87.313,9.793 C87.313,10.412 86.806,10.918 86.188,10.918 C85.569,10.918 85.063,10.412 85.063,9.793 C85.063,9.793 85.063,7.410 85.063,7.410 C85.063,6.791 85.569,6.285 86.188,6.285 C86.806,6.285 87.313,6.791 87.313,7.410 C87.313,7.410 87.313,9.793 87.313,9.793 z" fill="#FFFFFF" />
</g>
</svg>