<svg version="1.1" xmlns="http://www.w3.org/2000/svg" xmlns:xlink="http://www.w3.org/1999/xlink" width="127" height="45" viewBox="0 0 127 45">
<g id="coupon-1">
<path id="coupon-green" d="M127.000,14.937 C127.000,14.937 127.000,6.000 127.000,6.000 C127.000,2.686 124.314,-0.000 121.000,-0.000 C121.000,-0.000 6.000,-0.000 6.000,-0.000 C2.686,-0.000 -0.000,2.686 -0.000,6.000 C-0.000,6.000 -0.000,14.937 -0.000,14.937 C4.177,14.937 7.562,18.323 7.562,22.500 C7.562,26.677 4.177,30.062 -0.000,30.062 C-0.000,30.062 -0.000,39.000 -0.000,39.000 C-0.000,42.314 2.686,45.000 6.000,45.000 C6.000,45.000 121.000,45.000 121.000,45.000 C124.314,45.000 127.000,42.314 127.000,39.000 C127.000,39.000 127.000,30.062 127.000,30.062 C122.823,30.062 119.437,26.677 119.437,22.500 C119.437,18.323 122.823,14.937 127.000,14.937 zM87.312,37.590 C87.312,38.209 86.806,38.715 86.187,38.715 C85.569,38.715 85.062,38.209 85.062,37.590 C85.062,37.590 85.062,35.207 85.062,35.207 C85.062,34.588 85.569,34.082 86.187,34.082 C86.806,34.082 87.312,34.588 87.312,35.207 C87.312,35.207 87.312,37.590 87.312,37.590 zM87.312,28.324 C87.312,28.943 86.806,29.449 86.187,29.449 C85.569,29.449 85.062,28.943 85.062,28.324 C85.062,28.324 85.062,25.941 85.062,25.941 C85.062,25.323 85.569,24.816 86.187,24.816 C86.806,24.816 87.312,25.323 87.312,25.941 C87.312,25.941 87.312,28.324 87.312,28.324 zM87.312,19.059 C87.312,19.677 86.806,20.184 86.187,20.184 C85.569,20.184 85.062,19.677 85.062,19.059 C85.062,19.059 85.062,16.676 85.062,16.676 C85.062,16.057 85.569,15.551 86.187,15.551 C86.806,15.551 87.312,16.057 87.312,16.676 C87.312,16.676 87.312,19.059 87.312,19.059 zM87.312,9.793 C87.312,10.412 86.806,10.918 86.187,10.918 C85.569,10.918 85.062,10.412 85.062,9.793 C85.062,9.793 85.062,7.410 85.062,7.410 C85.062,6.791 85.569,6.285 86.187,6.285 C86.806,6.285 87.312,6.791 87.312,7.410 C87.312,7.410 87.312,9.793 87.312,9.793 z" fill="#0BECAA" />
<path id="5%-OFF" d="M68.492,18.494 L68.492,21.918 L72.820,21.918 L72.820,23.638 L68.492,23.638 L68.492,28.350 L66.324,28.350 L66.324,16.782 L73.620,16.782 L73.620,18.494 L68.492,18.494 zM59.508,21.918 L63.836,21.918 L63.836,23.638 L59.508,23.638 L59.508,28.350 L57.340,28.350 L57.340,16.782 L64.636,16.782 L64.636,18.494 L59.508,18.494 L59.508,21.918 zM54.028,26.798 C53.516,27.326 52.900,27.738 52.180,28.034 C51.460,28.330 50.663,28.478 49.788,28.478 C48.913,28.478 48.115,28.330 47.392,28.034 C46.669,27.738 46.051,27.326 45.536,26.798 C45.021,26.270 44.623,25.644 44.340,24.922 C44.057,24.199 43.916,23.414 43.916,22.566 C43.916,21.718 44.057,20.932 44.340,20.210 C44.623,19.487 45.021,18.862 45.536,18.334 C46.051,17.806 46.669,17.394 47.392,17.098 C48.115,16.802 48.913,16.654 49.788,16.654 C50.663,16.654 51.460,16.803 52.180,17.102 C52.900,17.400 53.516,17.812 54.028,18.338 C54.540,18.863 54.937,19.487 55.220,20.210 C55.503,20.932 55.644,21.718 55.644,22.566 C55.644,23.414 55.503,24.199 55.220,24.922 C54.937,25.644 54.540,26.270 54.028,26.798 zM53.184,20.858 C53.016,20.354 52.775,19.926 52.460,19.574 C52.145,19.222 51.763,18.952 51.312,18.766 C50.861,18.579 50.353,18.486 49.788,18.486 C49.223,18.486 48.713,18.579 48.260,18.766 C47.807,18.952 47.421,19.222 47.104,19.574 C46.787,19.926 46.543,20.354 46.372,20.858 C46.201,21.362 46.116,21.931 46.116,22.566 C46.116,23.200 46.201,23.770 46.372,24.274 C46.543,24.778 46.787,25.204 47.104,25.554 C47.421,25.903 47.807,26.171 48.260,26.358 C48.713,26.544 49.223,26.638 49.788,26.638 C50.353,26.638 50.861,26.544 51.312,26.358 C51.763,26.171 52.145,25.903 52.460,25.554 C52.775,25.204 53.016,24.778 53.184,24.274 C53.352,23.770 53.436,23.200 53.436,22.566 C53.436,21.931 53.352,21.362 53.184,20.858 zM38.996,27.714 C38.751,27.962 38.466,28.154 38.140,28.290 C37.815,28.426 37.476,28.494 37.124,28.494 C36.740,28.494 36.386,28.426 36.060,28.290 C35.735,28.154 35.454,27.962 35.216,27.714 C34.979,27.466 34.794,27.166 34.660,26.814 C34.527,26.462 34.460,26.067 34.460,25.630 C34.460,25.182 34.527,24.776 34.660,24.414 C34.794,24.051 34.979,23.744 35.216,23.494 C35.454,23.243 35.735,23.050 36.060,22.914 C36.386,22.778 36.740,22.710 37.124,22.710 C37.508,22.710 37.864,22.778 38.192,22.914 C38.520,23.050 38.804,23.243 39.044,23.494 C39.284,23.744 39.471,24.051 39.604,24.414 C39.738,24.776 39.804,25.182 39.804,25.630 C39.804,26.067 39.731,26.462 39.584,26.814 C39.438,27.166 39.242,27.466 38.996,27.714 zM38.192,24.854 C38.131,24.646 38.048,24.478 37.944,24.350 C37.840,24.222 37.718,24.130 37.576,24.074 C37.435,24.018 37.284,23.990 37.124,23.990 C36.964,23.990 36.815,24.018 36.676,24.074 C36.538,24.130 36.419,24.222 36.320,24.350 C36.222,24.478 36.143,24.646 36.084,24.854 C36.026,25.062 35.996,25.320 35.996,25.630 C35.996,25.928 36.026,26.179 36.084,26.382 C36.143,26.584 36.222,26.747 36.320,26.870 C36.419,26.992 36.538,27.080 36.676,27.134 C36.815,27.187 36.964,27.214 37.124,27.214 C37.284,27.214 37.435,27.187 37.576,27.134 C37.718,27.080 37.840,26.992 37.944,26.870 C38.048,26.747 38.131,26.584 38.192,26.382 C38.254,26.179 38.284,25.928 38.284,25.630 C38.284,25.320 38.254,25.062 38.192,24.854 zM30.360,28.266 C30.262,28.322 30.143,28.350 30.004,28.350 C30.004,28.350 28.532,28.350 28.532,28.350 C28.532,28.350 37.124,17.094 37.124,17.094 C37.188,17.014 37.268,16.942 37.364,16.878 C37.460,16.814 37.594,16.782 37.764,16.782 C37.764,16.782 39.196,16.782 39.196,16.782 C39.196,16.782 30.604,28.054 30.604,28.054 C30.540,28.139 30.459,28.210 30.360,28.266 zM32.468,21.666 C32.223,21.914 31.938,22.104 31.612,22.238 C31.287,22.371 30.948,22.438 30.596,22.438 C30.212,22.438 29.858,22.371 29.532,22.238 C29.207,22.104 28.926,21.914 28.688,21.666 C28.451,21.418 28.266,21.118 28.132,20.766 C27.999,20.414 27.932,20.019 27.932,19.582 C27.932,19.134 27.999,18.728 28.132,18.366 C28.266,18.003 28.451,17.696 28.688,17.446 C28.926,17.195 29.207,17.002 29.532,16.866 C29.858,16.730 30.212,16.662 30.596,16.662 C30.980,16.662 31.336,16.730 31.664,16.866 C31.992,17.002 32.276,17.195 32.516,17.446 C32.756,17.696 32.943,18.003 33.076,18.366 C33.210,18.728 33.276,19.134 33.276,19.582 C33.276,20.019 33.203,20.414 33.056,20.766 C32.910,21.118 32.714,21.418 32.468,21.666 zM31.660,18.806 C31.602,18.598 31.520,18.430 31.416,18.302 C31.312,18.174 31.190,18.082 31.048,18.026 C30.907,17.970 30.756,17.942 30.596,17.942 C30.436,17.942 30.287,17.970 30.148,18.026 C30.010,18.082 29.890,18.174 29.788,18.302 C29.687,18.430 29.608,18.598 29.552,18.806 C29.496,19.014 29.468,19.272 29.468,19.582 C29.468,19.880 29.496,20.130 29.552,20.330 C29.608,20.530 29.687,20.691 29.788,20.814 C29.890,20.936 30.010,21.024 30.148,21.078 C30.287,21.131 30.436,21.158 30.596,21.158 C30.756,21.158 30.907,21.131 31.048,21.078 C31.190,21.024 31.312,20.936 31.416,20.814 C31.520,20.691 31.602,20.530 31.660,20.330 C31.719,20.130 31.748,19.880 31.748,19.582 C31.748,19.272 31.719,19.014 31.660,18.806 zM25.245,27.346 C24.861,27.706 24.406,27.984 23.881,28.182 C23.355,28.379 22.783,28.478 22.165,28.478 C21.802,28.478 21.458,28.440 21.133,28.366 C20.807,28.291 20.502,28.191 20.217,28.066 C19.931,27.940 19.667,27.796 19.425,27.634 C19.182,27.471 18.965,27.299 18.773,27.118 C18.773,27.118 19.381,26.278 19.381,26.278 C19.509,26.096 19.679,26.006 19.893,26.006 C20.026,26.006 20.161,26.048 20.297,26.134 C20.433,26.219 20.591,26.312 20.773,26.414 C20.954,26.515 21.165,26.608 21.405,26.694 C21.645,26.779 21.935,26.822 22.277,26.822 C22.639,26.822 22.959,26.763 23.237,26.646 C23.514,26.528 23.745,26.364 23.929,26.154 C24.113,25.943 24.251,25.692 24.345,25.402 C24.438,25.111 24.485,24.795 24.485,24.454 C24.485,23.824 24.302,23.332 23.937,22.978 C23.571,22.623 23.034,22.446 22.325,22.446 C21.765,22.446 21.202,22.547 20.637,22.750 C20.637,22.750 19.405,22.398 19.405,22.398 L20.365,16.782 L26.077,16.782 C26.077,16.782 26.077,17.622 26.077,17.622 C26.077,17.904 25.987,18.134 25.809,18.310 C25.630,18.486 25.333,18.574 24.917,18.574 C24.917,18.574 21.733,18.574 21.733,18.574 C21.733,18.574 21.317,20.990 21.317,20.990 C21.839,20.883 22.317,20.830 22.749,20.830 C23.357,20.830 23.891,20.920 24.353,21.102 C24.814,21.283 25.202,21.534 25.517,21.854 C25.831,22.174 26.069,22.548 26.229,22.978 C26.389,23.407 26.469,23.870 26.469,24.366 C26.469,24.979 26.361,25.539 26.145,26.046 C25.929,26.552 25.629,26.986 25.245,27.346 z" fill="#FFFFFF" />
<path id="box-blue" d="M110.500,19.990 C110.500,19.990 104.000,19.990 104.000,19.990 L104.000,17.987 L102.000,17.987 L102.000,19.990 C102.000,19.990 95.500,19.990 95.500,19.990 C95.224,19.990 95.000,19.765 95.000,19.489 C95.000,19.489 95.000,17.987 95.000,17.987 C95.000,17.436 95.449,16.986 96.000,16.986 C96.000,16.986 99.164,16.986 99.164,16.986 C98.937,16.831 98.742,16.677 98.605,16.538 C97.800,15.726 97.800,14.405 98.606,13.593 C99.389,12.804 100.755,12.804 101.539,13.593 C101.972,14.028 103.122,15.801 102.964,16.986 C102.964,16.986 103.036,16.986 103.036,16.986 C102.877,15.801 104.027,14.028 104.461,13.593 C105.244,12.804 106.610,12.802 107.394,13.593 C108.201,14.405 108.201,15.726 107.394,16.538 C107.258,16.677 107.063,16.831 106.836,16.986 C106.836,16.986 110.000,16.986 110.000,16.986 C110.552,16.986 111.000,17.436 111.000,17.987 C111.000,17.987 111.000,19.489 111.000,19.489 C111.000,19.765 110.776,19.990 110.500,19.990 zM100.830,14.299 C100.627,14.094 100.358,13.982 100.073,13.982 C99.787,13.982 99.518,14.094 99.315,14.299 C98.896,14.721 98.896,15.410 99.315,15.832 C99.746,16.267 101.065,16.986 101.756,16.986 C101.899,16.986 101.941,16.953 101.941,16.953 C102.174,16.712 101.504,14.977 100.830,14.299 zM106.685,14.299 C106.278,13.889 105.573,13.891 105.170,14.299 C104.496,14.977 103.826,16.712 104.059,16.953 C104.059,16.954 104.101,16.986 104.243,16.986 C104.935,16.986 106.254,16.267 106.685,15.832 C107.105,15.410 107.105,14.721 106.685,14.299 zM102.000,28.000 C102.000,28.000 97.000,28.000 97.000,28.000 C96.449,28.000 96.000,27.551 96.000,26.999 C96.000,26.999 96.000,20.991 96.000,20.991 L102.000,20.991 L102.000,28.000 zM110.000,26.999 C110.000,27.551 109.552,28.000 109.000,28.000 C109.000,28.000 104.000,28.000 104.000,28.000 L104.000,20.991 L110.000,20.991 C110.000,20.991 110.000,26.999 110.000,26.999 z" fill="#FFFFFF" />
</g>
</svg>