<svg version="1.1" xmlns="http://www.w3.org/2000/svg" xmlns:xlink="http://www.w3.org/1999/xlink" width="10" height="6" viewBox="0 0 10 6">
<g id="dropdown">
<path id="dropdown" d="M9.509,1.152 C9.509,1.152 9.063,0.705 9.063,0.705 C9.003,0.646 8.934,0.616 8.857,0.616 C8.780,0.616 8.711,0.646 8.652,0.705 C8.652,0.705 5.143,4.214 5.143,4.214 C5.143,4.214 1.634,0.705 1.634,0.705 C1.574,0.646 1.506,0.616 1.429,0.616 C1.351,0.616 1.283,0.646 1.223,0.705 C1.223,0.705 0.777,1.152 0.777,1.152 C0.717,1.211 0.688,1.280 0.688,1.357 C0.688,1.435 0.717,1.503 0.777,1.562 C0.777,1.562 4.938,5.723 4.938,5.723 C4.997,5.783 5.065,5.812 5.143,5.812 C5.220,5.812 5.289,5.783 5.348,5.723 C5.348,5.723 9.509,1.562 9.509,1.562 C9.568,1.503 9.598,1.435 9.598,1.357 C9.598,1.280 9.568,1.211 9.509,1.152 C9.509,1.152 9.509,1.152 9.509,1.152 z" fill="#7986CB" />
</g>
</svg>