<?xml version="1.0" encoding="utf-8"?>
<!-- Generator: Adobe Illustrator 21.1.0, SVG Export Plug-In . SVG Version: 6.00 Build 0)  -->
<svg version="1.1" id="Layer_1" xmlns="http://www.w3.org/2000/svg" xmlns:xlink="http://www.w3.org/1999/xlink" x="0px" y="0px"
	 viewBox="0 0 34 32" style="enable-background:new 0 0 34 32;" xml:space="preserve">
<style type="text/css">
	.st0{fill:#7986CB;}
	.st1{fill:#75ECEF;}
</style>
<g>
	<g id="Layer_2_17_">
		<g>
			<path class="st0" d="M19.7,28.8c-0.3,0.1-0.5,0.1-0.8,0.2c-0.7,0.1-1.1,0.8-1,1.5c0,0,0,0.1,0,0.1c0.2,0.6,0.8,1,1.5,0.9
				c0.3-0.1,0.6-0.1,0.9-0.2c0.7-0.2,1.1-0.9,0.9-1.6C21,29,20.3,28.6,19.7,28.8z"/>
			<path class="st0" d="M10.8,28.1c-0.2-0.1-0.5-0.2-0.7-0.4c-0.6-0.3-1.4-0.1-1.7,0.5c-0.2,0.3-0.2,0.6-0.1,1
				c0.1,0.3,0.3,0.6,0.6,0.8c0.3,0.2,0.6,0.3,0.9,0.4c0.6,0.3,1.4,0,1.7-0.6C11.7,29.1,11.4,28.4,10.8,28.1z"/>
			<path class="st0" d="M15.2,29.2c-0.3,0-0.5-0.1-0.8-0.1c-0.7-0.1-1.3,0.4-1.4,1.1c0,0.2,0,0.4,0,0.5c0.1,0.5,0.5,0.8,1,0.9
				c0.3,0,0.6,0.1,1,0.1c0.7,0.1,1.3-0.5,1.4-1.2C16.4,29.9,15.9,29.3,15.2,29.2z"/>
			<path class="st0" d="M23.7,26.9c-0.2,0.2-0.5,0.3-0.7,0.4c-0.5,0.3-0.7,0.9-0.6,1.5c0,0.1,0.1,0.2,0.1,0.3
				c0.4,0.6,1.1,0.8,1.7,0.4c0.3-0.2,0.5-0.3,0.8-0.5c0.6-0.4,0.7-1.2,0.3-1.8C25.1,26.7,24.3,26.5,23.7,26.9z"/>
			<path class="st0" d="M28.7,23.5c-0.6-0.4-1.4-0.3-1.8,0.3c-0.2,0.2-0.3,0.4-0.5,0.6c-0.3,0.3-0.4,0.8-0.2,1.2
				c0.1,0.2,0.2,0.5,0.4,0.6c0.5,0.4,1.3,0.4,1.8-0.2c0.2-0.3,0.4-0.5,0.6-0.8C29.4,24.7,29.3,23.9,28.7,23.5z"/>
			<path class="st0" d="M30.5,18.9c-0.7-0.2-1.4,0.2-1.6,0.9c-0.1,0.3-0.2,0.5-0.3,0.8c-0.1,0.3-0.1,0.5,0,0.8
				c0.1,0.4,0.4,0.7,0.8,0.8c0.7,0.2,1.4-0.1,1.6-0.8c0.1-0.3,0.2-0.6,0.3-0.9C31.6,19.8,31.2,19,30.5,18.9z"/>
			<path class="st1" d="M32.9,10.6l-1.7,0.5c-1.3-3.9-3.9-7.1-7.5-9c-0.4-0.2-0.7-0.4-1.1-0.5c0,0,0,0,0,0c0,0,0,0-0.1,0
				c-3.3-1.4-6.9-1.7-10.4-0.8c0,0-0.1,0-0.1,0c-0.1,0-0.2,0.1-0.4,0.1c-0.2,0.1-0.4,0.1-0.6,0.2c0,0,0,0-0.1,0
				C7.9,2.2,5.3,4.2,3.4,6.8c0,0,0,0,0,0C3.2,7.1,3,7.4,2.8,7.7c0,0,0,0,0,0.1C2.6,8,2.5,8.3,2.3,8.5c-1.6,2.9-2.2,6.2-1.8,9.4
				c0,0,0,0,0,0s0,0,0,0c0.1,0.9,0.3,1.7,0.6,2.6c0.7,2.2,1.8,4.2,3.3,6c0.5,0.5,1.3,0.6,1.8,0.1s0.6-1.3,0.1-1.8
				C5.6,24,4.9,23,4.4,22c0,0,0,0,0,0c-0.1-0.2-0.2-0.5-0.3-0.7c0,0,0,0,0,0c-0.2-0.5-0.4-0.9-0.5-1.4C1.9,14.3,4,8.5,8.4,5.3
				c0.1-0.1,0.1-0.1,0.2-0.1c1.1-0.8,2.4-1.4,3.8-1.8c1.4-0.4,2.8-0.6,4.2-0.6c0,0,0,0,0.1,0c0.1,0,0.2,0,0.3,0c0,0,0.1,0,0.1,0
				c4.3,0.3,8.3,2.7,10.6,6.5v0c0,0.1,0.1,0.1,0.1,0.2c0,0,0,0,0,0c0.4,0.8,0.8,1.6,1.1,2.4l-1.7,0.5c-0.5,0.1-0.5,0.5-0.1,0.7
				l3.6,2.4c0.4,0.3,0.9,0.1,1.1-0.3l1.7-4C33.6,10.7,33.4,10.4,32.9,10.6z"/>
			<path class="st0" d="M11.5,16c-1.2,0.9-2.1,1.7-2.5,2.4c-0.4,0.7-0.7,1.4-0.8,2.1h7.7v-2.1h-4c0.2-0.2,0.4-0.4,0.6-0.6
				s0.5-0.4,1-0.7c0.9-0.6,1.5-1.2,1.8-1.7c0.3-0.5,0.5-1,0.5-1.6c0-0.5-0.1-1-0.4-1.4s-0.7-0.7-1.2-0.9c-0.5-0.2-1.2-0.3-2.1-0.3
				c-0.9,0-1.5,0.1-2,0.3C9.6,11.7,9.2,12,9,12.4c-0.3,0.4-0.5,1-0.6,1.7l2.6,0.2c0.1-0.5,0.2-0.9,0.4-1.1c0.2-0.2,0.5-0.3,0.8-0.3
				c0.3,0,0.6,0.1,0.8,0.3s0.3,0.4,0.3,0.7c0,0.3-0.1,0.5-0.3,0.8C12.8,15,12.3,15.5,11.5,16z"/>
			<path class="st0" d="M23.6,20.5v-1.7h1.2v-2h-1.2v-5.6h-2.2l-4.6,5.5v2.1h4.6v1.7H23.6L23.6,20.5z M18.9,16.8l2.5-2.9v2.9
				L18.9,16.8L18.9,16.8z"/>
		</g>
	</g>
</g>
</svg>