<?xml version="1.0" encoding="utf-8"?>
<!-- Generator: Adobe Illustrator 21.1.0, SVG Export Plug-In . SVG Version: 6.00 Build 0)  -->
<svg version="1.1" id="Layer_1" xmlns="http://www.w3.org/2000/svg" xmlns:xlink="http://www.w3.org/1999/xlink" x="0px" y="0px"
	 viewBox="0 0 131 131" style="enable-background:new 0 0 131 131;" xml:space="preserve">
<style type="text/css">
	.st0{opacity:0.2;fill:#67E3DA;enable-background:new    ;}
	.st1{opacity:0.102;fill:#67E3DA;enable-background:new    ;}
	.st2{fill:#717272;}
	.st3{fill:#3DD7EE;}
</style>
<g id="how_it_works_thr">
	<path id="Ellipse-1-copy-3" class="st0" d="M66,22c24.3,0,44,19.7,44,44s-19.7,44-44,44S22,90.3,22,66S41.7,22,66,22z"/>
	<path id="Ellipse-1-copy-3_1_" class="st1" d="M65.5,0C101.7,0,131,29.3,131,65.5S101.7,131,65.5,131S0,101.7,0,65.5S29.3,0,65.5,0
		z"/>
</g>
<g>
	<g>
		<path class="st2" d="M34.2,89.8h62.6l0,0c0.7,0,1.2-0.5,1.2-1.2c0-0.2-0.1-0.5-0.2-0.6l-6.1-12.3V42.5c0-0.7-0.5-1.2-1.2-1.2H77.2
			c-0.7,0-1.2,0.5-1.2,1.2c0,0.7,0.5,1.2,1.2,1.2h12.2v31H41.7v-31h11.8c0.7,0,1.2-0.5,1.2-1.2c0-0.7-0.5-1.2-1.2-1.2H40.5
			c-0.7,0-1.2,0.5-1.2,1.2v33.2L33.1,88c-0.2,0.4-0.2,0.8,0.1,1.2C33.4,89.5,33.8,89.8,34.2,89.8z M57.2,87.4l1.1-2.1h14.5l1,2.1
			H57.2z M41.2,77.1h48.6l5,10.2H76.5l-1.9-3.9c-0.2-0.4-0.6-0.7-1.1-0.7h-16c-0.5,0-0.9,0.3-1.1,0.7l-1.9,3.9H36.1L41.2,77.1z"/>
	</g>
</g>
<g>
	<g>
		<path id="XMLID_1220_" class="st3" d="M68.4,67.7h-9.8c-1.8,0-3.2-1.4-3.2-3.2v-12c0-1.8,1.4-3.2,3.2-3.2h19.6
			c1.8,0,3.2,1.4,3.2,3.2v12c0,1.8-1.4,3.2-3.2,3.2H67.1"/>
		<path class="st2" d="M58.6,68.4h19.6c2.2,0,3.9-1.8,3.9-4v-12c0-2.2-1.8-4-3.9-4H58.6c-2.2,0-3.9,1.8-3.9,4v12
			C54.7,66.6,56.4,68.4,58.6,68.4z M56.1,52.5c0-1.4,1.1-2.5,2.5-2.5h19.6c1.4,0,2.5,1.1,2.5,2.5v12c0,1.4-1.1,2.5-2.5,2.5H67.1
			h-8.5c-1.4,0-2.5-1.1-2.5-2.5V52.5L56.1,52.5z"/>
		<path class="st2" d="M58.7,64.5c0.1,0.2,0.3,0.3,0.5,0.3c0.2,0,0.3-0.1,0.5-0.2l6.3-5.5l2,1.6c0.1,0.1,0.3,0.1,0.5,0.1
			c0.2,0,0.3-0.1,0.5-0.1L71,59l6.2,5.6c0.1,0.1,0.3,0.2,0.5,0.2c0.2,0,0.4-0.1,0.5-0.2c0.3-0.3,0.2-0.8-0.1-1l-6-5.4l6-4.6
			c0.3-0.3,0.4-0.7,0.1-1c-0.3-0.3-0.7-0.4-1-0.1l-8.8,6.8l-2.1-1.6l0,0l-6.7-5.2c-0.3-0.3-0.8-0.2-1,0.1c-0.3,0.3-0.2,0.8,0.1,1
			l6,4.7l-6.1,5.3C58.4,63.8,58.4,64.2,58.7,64.5z"/>
		<path class="st2" d="M52.4,59.2c0.4,0,0.7-0.3,0.7-0.7c0-0.4-0.3-0.7-0.7-0.7h-5.8c-0.4,0-0.7,0.3-0.7,0.7c0,0.4,0.3,0.7,0.7,0.7
			H52.4z"/>
		<path class="st2" d="M43.7,55.4h8.7c0.4,0,0.7-0.3,0.7-0.7c0-0.4-0.3-0.7-0.7-0.7h-8.7c-0.4,0-0.7,0.3-0.7,0.7
			C43,55.1,43.3,55.4,43.7,55.4z"/>
		<path class="st2" d="M53.1,62.3c0-0.4-0.3-0.7-0.7-0.7h-3.8c-0.4,0-0.7,0.3-0.7,0.7c0,0.4,0.3,0.7,0.7,0.7h3.8
			C52.8,63.1,53.1,62.7,53.1,62.3z"/>
	</g>
</g>
<rect x="53.1" y="41.2" class="st2" width="25.4" height="2.4"/>
</svg>
