<?xml version="1.0" encoding="utf-8"?>
<!-- Generator: Adobe Illustrator 21.1.0, SVG Export Plug-In . SVG Version: 6.00 Build 0)  -->
<svg version="1.1" id="Layer_1" xmlns="http://www.w3.org/2000/svg" xmlns:xlink="http://www.w3.org/1999/xlink" x="0px" y="0px"
	 viewBox="0 0 131 131" style="enable-background:new 0 0 131 131;" xml:space="preserve">
<style type="text/css">
	.st0{opacity:0.2;fill:#67E3DA;enable-background:new    ;}
	.st1{opacity:0.102;fill:#67E3DA;enable-background:new    ;}
	.st2{fill:#3DD7EE;}
	.st3{fill:#717272;}
</style>
<g id="how_it_works_two">
	<path id="Ellipse-1-copy-2" class="st0" d="M66,22c24.3,0,44,19.7,44,44s-19.7,44-44,44S22,90.3,22,66S41.7,22,66,22z"/>
	<path id="Ellipse-1-copy-2_1_" class="st1" d="M65.5,0C101.7,0,131,29.3,131,65.5S101.7,131,65.5,131S0,101.7,0,65.5S29.3,0,65.5,0
		z"/>
</g>
<g>
	<g>
		<rect x="60.3" y="44.2" class="st2" width="9.9" height="20.8"/>
		<path class="st3" d="M37.7,89h54.9l0,0c0.6,0,1.1-0.5,1.1-1.1c0-0.2-0.1-0.4-0.2-0.5l-5.3-10.8V47.5c0-0.6-0.5-1.1-1.1-1.1H75.5
			c-0.6,0-1.1,0.5-1.1,1.1c0,0.6,0.5,1.1,1.1,1.1h10.7v27.2H44.3V48.5h10.4c0.6,0,1.1-0.5,1.1-1.1c0-0.6-0.5-1.1-1.1-1.1H43.3
			c-0.6,0-1.1,0.5-1.1,1.1v29.1l-5.4,10.9c-0.2,0.3-0.1,0.7,0,1C37,88.8,37.4,89,37.7,89z M57.9,86.9l0.9-1.9h12.7l0.9,1.9H57.9z
			 M43.9,77.9h42.6l4.4,9H74.8l-1.7-3.4c-0.2-0.4-0.5-0.6-0.9-0.6h-14c-0.4,0-0.8,0.2-0.9,0.6l-1.7,3.4H39.4L43.9,77.9z"/>
		<path class="st3" d="M71.2,41c0-2.1-1.7-3.8-3.8-3.8H63c-2.1,0-3.8,1.7-3.8,3.8v2.9c0,0.1,0,0.1,0,0.2c0,0.1,0,0.1,0,0.2V65
			c0,0,0,0,0,0c0,0,0,0.1,0,0.2c0,0,0,0,0,0c0,0.1,0,0.1,0.1,0.2c0,0,0,0,0,0c0,0,0,0.1,0.1,0.1c0,0,0,0,0,0c0,0,0,0,0,0l5,6.5
			c0.2,0.3,0.5,0.4,0.8,0.4s0.6-0.2,0.8-0.4l5-6.5c0,0,0,0,0,0s0,0,0,0c0,0,0-0.1,0.1-0.1c0,0,0,0,0,0c0-0.1,0-0.1,0.1-0.2
			c0,0,0,0,0,0c0,0,0-0.1,0-0.2c0,0,0,0,0,0V44.2c0-0.1,0-0.1,0-0.2c0-0.1,0-0.1,0-0.2L71.2,41L71.2,41L71.2,41z M61.3,44.9h2.8V64
			h-2.8V44.9z M66.3,44.9h2.8V64h-2.8L66.3,44.9L66.3,44.9z M61.3,41c0-0.9,0.8-1.7,1.7-1.7h4.4c0.9,0,1.7,0.8,1.7,1.7v1.8h-7.8V41
			L61.3,41z M65.2,69.8l-2.8-3.7H68L65.2,69.8z"/>
	</g>
</g>
</svg>
