<?xml version="1.0" encoding="utf-8"?>
<!-- Generator: Adobe Illustrator 21.1.0, SVG Export Plug-In . SVG Version: 6.00 Build 0)  -->
<svg version="1.1" id="Layer_1" xmlns="http://www.w3.org/2000/svg" xmlns:xlink="http://www.w3.org/1999/xlink" x="0px" y="0px"
	 viewBox="0 0 131 131" style="enable-background:new 0 0 131 131;" xml:space="preserve">
<style type="text/css">
	.st0{opacity:0.102;fill:#67E3DA;enable-background:new    ;}
	.st1{opacity:0.2;fill:#67E3DA;enable-background:new    ;}
	.st2{fill:#D5D8DB;}
	.st3{fill:#3DD7EE;}
	.st4{fill:#717272;}
</style>
<g id="how_it_works_one">
	<path id="Ellipse-1-copy" class="st0" d="M65.5,0C101.7,0,131,29.3,131,65.5S101.7,131,65.5,131S0,101.7,0,65.5S29.3,0,65.5,0z"/>
	<path id="Ellipse-1" class="st1" d="M66,22c24.3,0,44,19.7,44,44s-19.7,44-44,44S22,90.3,22,66S41.7,22,66,22z"/>
</g>
<g>
	<g>
		<path class="st2" d="M91,83.8H37.6c-0.7,0-1.2-0.5-1.2-1.1v-6.4h55.8v6.4C92.2,83.3,91.6,83.8,91,83.8z"/>
		<path class="st3" d="M95.1,40.6H71.9c-2.1,0-3.8,1.6-3.8,3.5v13c0,1.9,1.7,3.5,3.8,3.5h3v6.2l7.1-6.2h13.2c2.1,0,3.8-1.6,3.8-3.5
			v-13C99,42.2,97.3,40.6,95.1,40.6z"/>
		<path class="st4" d="M92.2,63.9c-0.7,0-1.2,0.5-1.2,1.1v10.6H37.6V51.5c0-1.3,1.2-2.4,2.6-2.4h23.1c0.7,0,1.2-0.5,1.2-1.1
			c0-0.6-0.5-1.1-1.2-1.1H40.2c-2.8,0-5,2.1-5,4.6v29c0,2.5,2.3,4.6,5,4.6h22.9v7.2H52.4c-0.7,0-1.2,0.5-1.2,1.1
			c0,0.6,0.5,1.1,1.2,1.1h23.9c0.7,0,1.2-0.5,1.2-1.1c0-0.6-0.5-1.1-1.2-1.1H65.5v-7.2h22.9c2.8,0,5-2.1,5-4.6V65
			C93.4,64.4,92.9,63.9,92.2,63.9z M88.4,83H40.2c-1.4,0-2.6-1.1-2.6-2.4v-2.7H91v2.7C91,81.9,89.8,83,88.4,83z"/>
		<path class="st4" d="M95.1,39.5H71.9c-2.8,0-5,2.1-5,4.6v13c0,2.5,2.3,4.6,5,4.6h1.8v5.1c0,0.4,0.3,0.8,0.7,1
			c0.1,0.1,0.3,0.1,0.5,0.1c0.3,0,0.6-0.1,0.8-0.3l6.7-5.9h12.7c2.8,0,5-2.1,5-4.6v-13C100.2,41.6,97.9,39.5,95.1,39.5z M97.8,57.1
			c0,1.3-1.2,2.4-2.6,2.4H82c-0.3,0-0.6,0.1-0.8,0.3l-5,4.4v-3.6c0-0.3-0.1-0.6-0.4-0.8c-0.2-0.2-0.5-0.3-0.9-0.3h-3
			c-1.5,0-2.6-1.1-2.6-2.4v-13c0-1.3,1.2-2.4,2.6-2.4h23.3c1.5,0,2.6,1.1,2.6,2.4L97.8,57.1L97.8,57.1L97.8,57.1z"/>
		<path class="st4" d="M83.5,49.9c-0.3,0-0.6,0.1-0.9,0.3c-0.2,0.2-0.4,0.5-0.4,0.8c0,0.3,0.1,0.6,0.4,0.8c0.2,0.2,0.5,0.3,0.9,0.3
			s0.6-0.1,0.9-0.3c0.2-0.2,0.4-0.5,0.4-0.8c0-0.3-0.1-0.6-0.4-0.8C84.1,50,83.8,49.9,83.5,49.9z"/>
		<path class="st4" d="M88,49.9c-0.3,0-0.6,0.1-0.9,0.3c-0.2,0.2-0.4,0.5-0.4,0.8c0,0.3,0.1,0.6,0.4,0.8c0.2,0.2,0.5,0.3,0.9,0.3
			c0.3,0,0.6-0.1,0.9-0.3c0.2-0.2,0.4-0.5,0.4-0.8c0-0.3-0.1-0.6-0.4-0.8C88.6,50,88.3,49.9,88,49.9z"/>
		<path class="st4" d="M79,49.9c-0.3,0-0.6,0.1-0.9,0.3c-0.2,0.2-0.4,0.5-0.4,0.8c0,0.3,0.1,0.6,0.4,0.8c0.2,0.2,0.5,0.3,0.9,0.3
			s0.6-0.1,0.9-0.3c0.2-0.2,0.4-0.5,0.4-0.8c0-0.3-0.1-0.6-0.4-0.8C79.7,50,79.3,49.9,79,49.9z"/>
	</g>
</g>
</svg>
