<?xml version="1.0" encoding="utf-8"?>
<!-- Generator: Adobe Illustrator 19.0.0, SVG Export Plug-In . SVG Version: 6.00 Build 0)  -->
<svg version="1.1" id="Layer_1" xmlns="http://www.w3.org/2000/svg" xmlns:xlink="http://www.w3.org/1999/xlink" x="0px" y="0px"
	 viewBox="-414 215 131 131" style="enable-background:new -414 215 131 131;" xml:space="preserve">
<style type="text/css">
	.st0{opacity:0.102;fill:#7D5FFF;enable-background:new    ;}
	.st1{opacity:0.2;fill:#7D5FFF;enable-background:new    ;}
	.st2{fill:#D5D8DB;}
	.st3{fill:#D6E6FF;}
	.st4{fill:#717272;}
</style>
<g id="how_it_works_one">
	<path id="Ellipse-1-copy" class="st0" d="M-348.5,215c36.2,0,65.5,29.3,65.5,65.5s-29.3,65.5-65.5,65.5s-65.5-29.3-65.5-65.5
		S-384.7,215-348.5,215z"/>
	<path id="Ellipse-1" class="st1" d="M-348,237c24.3,0,44,19.7,44,44s-19.7,44-44,44s-44-19.7-44-44S-372.3,237-348,237z"/>
</g>
<path class="st2" d="M-323,298.8h-53.4c-0.7,0-1.2-0.5-1.2-1.1v-6.4h55.8v6.4C-321.8,298.3-322.4,298.8-323,298.8z"/>
<g>
	<path class="st3" d="M-323,260h-23.2c-2.1,0-3.8,1.6-3.8,3.5v13c0,1.9,1.7,3.5,3.8,3.5h3v6.2l7.1-6.2h13.2c2.1,0,3.8-1.6,3.8-3.5
		v-13C-319.1,261.5-320.9,260-323,260z"/>
</g>
<path class="st4" d="M-321.8,278.9c-0.7,0-1.2,0.5-1.2,1.1v10.6h-53.4v-24.1c0-1.3,1.2-2.4,2.6-2.4h23.1c0.7,0,1.2-0.5,1.2-1.1
	s-0.5-1.1-1.2-1.1h-23.1c-2.8,0-5,2.1-5,4.6v29c0,2.5,2.3,4.6,5,4.6h22.9v7.2h-10.7c-0.7,0-1.2,0.5-1.2,1.1s0.5,1.1,1.2,1.1h23.9
	c0.7,0,1.2-0.5,1.2-1.1s-0.5-1.1-1.2-1.1h-10.8v-7.2h22.9c2.8,0,5-2.1,5-4.6V280C-320.6,279.4-321.1,278.9-321.8,278.9z M-325.6,298
	h-48.2c-1.4,0-2.6-1.1-2.6-2.4v-2.7h53.4v2.7C-323,296.9-324.2,298-325.6,298z"/>
<path class="st4" d="M-323,258.9h-23.2c-2.8,0-5,2.1-5,4.6v13c0,2.5,2.3,4.6,5,4.6h1.8v5.1c0,0.4,0.3,0.8,0.7,1
	c0.1,0.1,0.3,0.1,0.5,0.1c0.3,0,0.6-0.1,0.8-0.3l6.7-5.9h12.7c2.8,0,5-2.1,5-4.6v-13C-318,261-320.3,258.9-323,258.9z M-320.4,276.5
	c0,1.3-1.2,2.4-2.6,2.4h-13.2c-0.3,0-0.6,0.1-0.8,0.3l-5,4.4V280c0-0.3-0.1-0.6-0.4-0.8c-0.2-0.2-0.5-0.3-0.9-0.3h-3
	c-1.5,0-2.6-1.1-2.6-2.4v-13c0-1.3,1.2-2.4,2.6-2.4h23.3c1.5,0,2.6,1.1,2.6,2.4V276.5L-320.4,276.5L-320.4,276.5z"/>
<path class="st4" d="M-334.6,269.3c-0.3,0-0.6,0.1-0.9,0.3c-0.2,0.2-0.4,0.5-0.4,0.8c0,0.3,0.1,0.6,0.4,0.8c0.2,0.2,0.5,0.3,0.9,0.3
	s0.6-0.1,0.9-0.3c0.2-0.2,0.4-0.5,0.4-0.8c0-0.3-0.1-0.6-0.4-0.8C-334,269.4-334.4,269.3-334.6,269.3z"/>
<path class="st4" d="M-330.1,269.3c-0.3,0-0.6,0.1-0.9,0.3c-0.2,0.2-0.4,0.5-0.4,0.8c0,0.3,0.1,0.6,0.4,0.8c0.2,0.2,0.5,0.3,0.9,0.3
	c0.3,0,0.6-0.1,0.9-0.3c0.2-0.2,0.4-0.5,0.4-0.8c0-0.3-0.1-0.6-0.4-0.8C-329.5,269.4-329.9,269.3-330.1,269.3z"/>
<path class="st4" d="M-339.1,269.3c-0.3,0-0.6,0.1-0.9,0.3c-0.2,0.2-0.4,0.5-0.4,0.8c0,0.3,0.1,0.6,0.4,0.8c0.2,0.2,0.5,0.3,0.9,0.3
	s0.6-0.1,0.9-0.3c0.2-0.2,0.4-0.5,0.4-0.8c0-0.3-0.1-0.6-0.4-0.8C-338.5,269.4-338.9,269.3-339.1,269.3z"/>
<path class="st4" d="M-325.9,269.3c-0.3,0-0.6,0.1-0.9,0.3c-0.2,0.2-0.4,0.5-0.4,0.8c0,0.3,0.1,0.6,0.4,0.8c0.2,0.2,0.5,0.3,0.9,0.3
	c0.3,0,0.6-0.1,0.9-0.3c0.2-0.2,0.4-0.5,0.4-0.8c0-0.3-0.1-0.6-0.4-0.8C-325.3,269.4-325.5,269.3-325.9,269.3z"/>
<path class="st4" d="M-343.4,269.3c-0.3,0-0.6,0.1-0.9,0.3c-0.2,0.2-0.4,0.5-0.4,0.8c0,0.3,0.1,0.6,0.4,0.8c0.2,0.2,0.5,0.3,0.9,0.3
	c0.3,0,0.6-0.1,0.9-0.3c0.2-0.2,0.4-0.5,0.4-0.8c0-0.3-0.1-0.6-0.4-0.8C-342.8,269.4-343.1,269.3-343.4,269.3z"/>
</svg>
