<?xml version="1.0" encoding="utf-8"?>
<!-- Generator: Adobe Illustrator 21.1.0, SVG Export Plug-In . SVG Version: 6.00 Build 0)  -->
<svg version="1.1" id="Layer_1" xmlns="http://www.w3.org/2000/svg" xmlns:xlink="http://www.w3.org/1999/xlink" x="0px" y="0px"
	 viewBox="0 0 12 12" style="enable-background:new 0 0 12 12;" xml:space="preserve">
<style type="text/css">
	.st0{fill:none;stroke:#7986CB;stroke-width:0.5;stroke-miterlimit:10;}
</style>
<g>
	<path class="st0" d="M6.3,9.4c-0.2-0.1-0.5-0.1-0.7,0l-3.4,2.3c-0.2,0.1-0.3,0.1-0.2-0.2l1.1-3.6c0.1-0.2,0-0.5-0.2-0.7L0.4,4.6
		C0.2,4.5,0.3,4.4,0.5,4.3L3.9,4c0.2,0,0.5-0.2,0.6-0.4l1.4-3.2C6,0.2,6,0.2,6.1,0.4l1.4,3.2C7.6,3.8,7.8,4,8.1,4l3.5,0.3
		c0.2,0,0.3,0.2,0.1,0.3L9.1,7.3C8.9,7.4,8.8,7.7,8.9,7.9l1.1,3.6c0.1,0.2,0,0.3-0.2,0.2L6.3,9.4z"/>
</g>
</svg>