<?xml version="1.0" encoding="utf-8"?>
<!-- Generator: Adobe Illustrator 21.1.0, SVG Export Plug-In . SVG Version: 6.00 Build 0)  -->
<svg version="1.1" id="Layer_1" xmlns="http://www.w3.org/2000/svg" xmlns:xlink="http://www.w3.org/1999/xlink" x="0px" y="0px"
	 viewBox="0 0 12 12" style="enable-background:new 0 0 12 12;" xml:space="preserve">
<style type="text/css">
	.st0{fill:none;stroke:#7986CB;stroke-width:0.5;stroke-miterlimit:10;}
	.st1{fill:#7986CB;}
</style>
<g>
	<path class="st0" d="M6.3,9.4c-0.2-0.1-0.5-0.1-0.7,0l-3.4,2.3C2,11.8,1.9,11.8,2,11.5l1.1-3.6c0.1-0.2,0-0.5-0.2-0.7L0.3,4.6
		C0.1,4.5,0.2,4.4,0.4,4.3L3.9,4c0.2,0,0.5-0.2,0.6-0.4l1.4-3.2c0.1-0.2,0.2-0.2,0.3,0l1.3,3.2C7.5,3.8,7.7,4,8,4l3.5,0.3
		c0.2,0,0.3,0.2,0.1,0.3L9.1,7.3C8.9,7.5,8.8,7.7,8.9,7.9l1.1,3.6c0.1,0.2,0,0.3-0.2,0.2L6.3,9.4z"/>
</g>
<polygon class="st1" points="6,0.6 4.3,4.1 0.2,4.4 3.3,7.5 2.2,11.3 2,11.5 6,9.1 "/>
</svg>