<?xml version="1.0" encoding="utf-8"?>
<!-- Generator: Adobe Illustrator 21.1.0, SVG Export Plug-In . SVG Version: 6.00 Build 0)  -->
<svg version="1.1" id="Layer_1" xmlns="http://www.w3.org/2000/svg" xmlns:xlink="http://www.w3.org/1999/xlink" x="0px" y="0px"
	 viewBox="0 0 25 25" style="enable-background:new 0 0 25 25;" xml:space="preserve">
<style type="text/css">
	.st0{fill:#7986CB;}
</style>
<g id="location_1_">
	<path id="location" class="st0" d="M12.6,12.2c-1.1,0-2-0.4-2.8-1.2C9,10.3,8.6,9.3,8.6,8.2c0-1.1,0.4-2,1.2-2.8
		c0.8-0.8,1.7-1.2,2.8-1.2c1.1,0,2,0.4,2.8,1.2c0.8,0.8,1.2,1.7,1.2,2.8c0,1.1-0.4,2-1.2,2.8C14.7,11.8,13.7,12.2,12.6,12.2z
		 M18.3,2.6c-1.6-1.6-3.4-2.3-5.7-2.3C10.4,0.2,8.5,1,7,2.6C5.4,4.1,4.6,6,4.6,8.2c0,1.1,0.2,2.1,0.5,2.8l5.7,12.1
		c0.2,0.3,0.4,0.6,0.7,0.8s0.7,0.3,1.1,0.3s0.7-0.1,1.1-0.3s0.6-0.5,0.7-0.8L20.1,11c0.3-0.7,0.5-1.7,0.5-2.8
		C20.6,6,19.8,4.1,18.3,2.6z"/>
</g>
</svg>
