<?xml version="1.0" encoding="utf-8"?>
<!-- Generator: Adobe Illustrator 21.1.0, SVG Export Plug-In . SVG Version: 6.00 Build 0)  -->
<svg version="1.1" id="Layer_1" xmlns="http://www.w3.org/2000/svg" xmlns:xlink="http://www.w3.org/1999/xlink" x="0px" y="0px"
	 viewBox="0 0 25 25" style="enable-background:new 0 0 25 25;" xml:space="preserve">
<style type="text/css">
	.st0{fill:#7986CB;}
</style>
<g id="mail_1_">
	<path id="mail" class="st0" d="M23.2,10.3c-2.9,2-5.2,3.5-6.7,4.6c-0.5,0.4-0.9,0.7-1.2,0.9c-0.3,0.2-0.7,0.4-1.3,0.6
		c-0.5,0.2-1,0.3-1.5,0.3h0h0c-0.5,0-0.9-0.1-1.5-0.3c-0.5-0.2-0.9-0.4-1.3-0.6c-0.3-0.2-0.7-0.5-1.2-0.9c-1.2-0.9-3.4-2.4-6.7-4.6
		c-0.5-0.3-1-0.7-1.4-1.2v10.6c0,0.6,0.2,1.1,0.6,1.5c0.4,0.4,0.9,0.6,1.5,0.6h19.7c0.6,0,1.1-0.2,1.5-0.6c0.4-0.4,0.6-0.9,0.6-1.5
		V9.2C24.1,9.6,23.7,10,23.2,10.3L23.2,10.3z M23.9,3.7c-0.4-0.4-0.9-0.6-1.5-0.6H2.6C2,3.1,1.4,3.3,1.1,3.8c-0.4,0.5-0.6,1-0.6,1.7
		c0,0.6,0.2,1.2,0.7,1.8c0.5,0.7,1,1.2,1.6,1.5C3.1,9.1,4,9.7,5.5,10.8c1.5,1.1,2.7,1.9,3.5,2.4c0.1,0.1,0.3,0.2,0.6,0.4
		c0.3,0.2,0.5,0.4,0.7,0.5c0.2,0.1,0.4,0.3,0.7,0.4c0.3,0.2,0.5,0.3,0.8,0.4c0.2,0.1,0.5,0.1,0.7,0.1h0h0c0.2,0,0.4,0,0.7-0.1
		c0.2-0.1,0.5-0.2,0.8-0.4c0.3-0.2,0.5-0.3,0.7-0.4c0.2-0.1,0.4-0.3,0.7-0.5c0.3-0.2,0.5-0.3,0.6-0.4c0.8-0.6,2.9-2,6.3-4.4
		c0.7-0.5,1.2-1,1.6-1.6s0.7-1.3,0.7-2C24.5,4.6,24.3,4.1,23.9,3.7z"/>
</g>
</svg>
