<?xml version="1.0" encoding="utf-8"?>
<!-- Generator: Adobe Illustrator 21.1.0, SVG Export Plug-In . SVG Version: 6.00 Build 0)  -->
<svg version="1.1" id="Layer_1" xmlns="http://www.w3.org/2000/svg" xmlns:xlink="http://www.w3.org/1999/xlink" x="0px" y="0px"
	 viewBox="0 0 40 26" style="enable-background:new 0 0 40 26;" xml:space="preserve">
<style type="text/css">
	.st0{fill:#37BCEB;}
	.st1{fill:none;}
	.st2{fill:#FFFFFF;}
	.st3{fill:#B4EAF9;}
	.st4{fill:#9DE3FC;}
</style>
<g id="mastercard">
	<path id="Rounded-Rectangl" class="st0" d="M3.1,0h33.8C38.7,0,40,1.3,40,3v20c0,1.7-1.3,3-3.1,3H3.1C1.3,26,0,24.7,0,23V3
		C0,1.3,1.3,0,3.1,0z"/>
</g>
<polyline class="st1" points="36,0 36,26.4 3.8,26.4 "/>
<path class="st2" d="M11.8,23.1v-1.3c0-0.4-0.3-0.8-0.7-0.8H11c-0.3,0-0.6,0.1-0.7,0.4C10.2,21.2,9.9,21,9.6,21
	c-0.2,0-0.5,0.1-0.6,0.3V21H8.4v2.1h0.5v-1.2c0-0.3,0.2-0.5,0.4-0.6h0.1c0.3,0,0.5,0.2,0.5,0.6v1.2h0.5v-1.2c0-0.3,0.2-0.5,0.4-0.6
	h0.1c0.3,0,0.5,0.2,0.5,0.6v1.2H11.8z M18.6,21h-0.8v-0.6h-0.5V21h-0.4v0.4h0.4v1c0,0.5,0.2,0.8,0.7,0.8c0.2,0,0.4-0.1,0.6-0.2
	l-0.1-0.4c-0.1,0.1-0.3,0.1-0.4,0.1c-0.2,0-0.3-0.1-0.3-0.4v-1h0.7L18.6,21z M22.5,20.9c-0.2,0-0.4,0.1-0.6,0.3V21h-0.4v2.1H22v-1.2
	c0-0.3,0.1-0.5,0.4-0.5c0.1,0,0.2,0,0.3,0.1l0.1-0.4C22.7,20.9,22.6,20.9,22.5,20.9L22.5,20.9z M16.6,21.2C16.3,21,16,21,15.7,21
	c-0.5,0-0.9,0.3-0.9,0.7c0,0.3,0.3,0.6,0.7,0.6h0.2c0.3,0,0.4,0.1,0.4,0.2c0,0.2-0.2,0.3-0.5,0.3s-0.5-0.1-0.7-0.2L14.7,23
	c0.3,0.2,0.6,0.3,0.9,0.3c0.6,0,1-0.3,1-0.7c0-0.4-0.3-0.6-0.7-0.6h-0.2c-0.2,0-0.4-0.1-0.4-0.2s0.1-0.2,0.4-0.2
	c0.2,0,0.5,0.1,0.7,0.2L16.6,21.2z M28.8,20.9c-0.2,0-0.4,0.1-0.6,0.3V21h-0.5v2.1h0.5v-1.2c0-0.3,0.1-0.5,0.4-0.5
	c0.1,0,0.2,0,0.3,0.1l0.1-0.4C29,20.9,28.9,20.9,28.8,20.9L28.8,20.9z M22.9,22c0,0.6,0.4,1.1,1,1.1H24c0.3,0,0.5-0.1,0.8-0.3
	l-0.2-0.4c-0.2,0.1-0.4,0.2-0.5,0.2c-0.4,0-0.6-0.4-0.6-0.7c0-0.3,0.3-0.6,0.6-0.6c0.2,0,0.4,0.1,0.5,0.2l0.2-0.4
	c-0.2-0.2-0.5-0.3-0.8-0.3c-0.6,0-1.1,0.4-1.1,1C22.9,22,22.9,22,22.9,22L22.9,22z M27.2,22v-1h-0.5v0.3C26.5,21.1,26.3,21,26,21
	c-0.6,0-1.1,0.5-1.1,1.1s0.5,1.1,1.1,1.1c0.3,0,0.5-0.1,0.7-0.3v0.3h0.5V22z M25.5,22c0-0.3,0.3-0.6,0.7-0.6c0.3,0,0.6,0.3,0.6,0.7
	c0,0.3-0.3,0.6-0.6,0.6C25.8,22.7,25.5,22.4,25.5,22C25.5,22.1,25.5,22.1,25.5,22z M20,20.9c-0.6,0-1.1,0.5-1.1,1.1s0.5,1.1,1.1,1.1
	l0,0c0.3,0,0.6-0.1,0.9-0.3l-0.2-0.3c-0.2,0.1-0.4,0.2-0.6,0.2c-0.3,0-0.6-0.2-0.6-0.5h1.6c0-0.1,0-0.1,0-0.2
	C21,21.4,20.6,20.9,20,20.9L20,20.9z M20,21.3c0.3,0,0.5,0.2,0.5,0.5l0,0h-1.1C19.5,21.6,19.7,21.3,20,21.3L20,21.3z M31.4,22v-1.9
	H31v1.1c-0.2-0.2-0.4-0.3-0.7-0.3c-0.6,0-1.1,0.5-1.1,1.1s0.5,1.1,1.1,1.1c0.3,0,0.5-0.1,0.7-0.3v0.3h0.4V22z M32.2,22.8
	C32.2,22.8,32.3,22.8,32.2,22.8c0.1,0,0.1,0,0.2,0.1c0,0,0,0,0,0.1s0,0.1,0,0.2c0,0,0,0,0,0.1c0,0,0,0-0.1,0h-0.1
	c-0.1,0-0.2-0.1-0.2-0.1c0-0.1,0-0.1,0-0.2c0,0,0,0,0-0.1C32.1,22.8,32.1,22.8,32.2,22.8C32.1,22.8,32.2,22.8,32.2,22.8L32.2,22.8z
	 M32.2,23.2C32.2,23.2,32.2,23.1,32.2,23.2c0.1,0,0.1,0,0.1,0c0.1-0.1,0.1-0.2,0-0.2c0,0,0,0-0.1,0c0,0,0,0-0.1,0c0,0,0,0-0.1,0
	c0,0,0,0-0.1,0c-0.1,0.1-0.1,0.2,0,0.2C32.1,23.1,32.1,23.1,32.2,23.2C32.2,23.1,32.2,23.2,32.2,23.2L32.2,23.2z M32.2,22.9
	C32.2,22.9,32.3,22.9,32.2,22.9C32.3,22.9,32.3,22.9,32.2,22.9c0.1,0.1,0.1,0.1,0.1,0.1l0,0l0.1,0.1h-0.1L32.2,23l0,0v0.1l0,0V22.9
	L32.2,22.9z M32.2,22.9L32.2,22.9L32.2,22.9C32.2,23,32.2,23,32.2,22.9C32.2,23,32.2,23,32.2,22.9C32.2,23,32.2,22.9,32.2,22.9
	L32.2,22.9L32.2,22.9z M29.8,22c0-0.3,0.3-0.6,0.7-0.6c0.3,0,0.6,0.3,0.6,0.7c0,0.3-0.3,0.6-0.6,0.6C30,22.7,29.8,22.4,29.8,22
	C29.7,22.1,29.7,22.1,29.8,22z M14.3,22v-1h-0.5v0.3c-0.2-0.2-0.4-0.3-0.7-0.3c-0.6,0-1.1,0.5-1.1,1.1s0.5,1.1,1.1,1.1
	c0.3,0,0.5-0.1,0.7-0.3v0.3h0.5V22z M12.6,22c0-0.3,0.3-0.6,0.7-0.6s0.6,0.3,0.6,0.7c0,0.3-0.3,0.6-0.6,0.6
	C12.9,22.7,12.6,22.4,12.6,22C12.6,22.1,12.6,22.1,12.6,22L12.6,22z"/>
<g id="_Group_">
	<rect x="16.4" y="5" class="st3" width="6.9" height="12.4"/>
	<path id="_Path_" class="st4" d="M16.9,11.2c0-2.4,1.1-4.7,3-6.2c-3.4-2.7-8.4-2.1-11.1,1.3s-2.1,8.4,1.3,11.1
		c2.9,2.3,6.9,2.3,9.8,0C18,15.9,16.9,13.6,16.9,11.2z"/>
	<path class="st2" d="M32.7,11.2c0,4.4-3.5,7.9-7.9,7.9c-1.8,0-3.5-0.6-4.9-1.7c3.4-2.7,4-7.7,1.3-11.1c-0.4-0.5-0.8-0.9-1.3-1.3
		c3.4-2.7,8.4-2.1,11.1,1.3C32.1,7.7,32.7,9.4,32.7,11.2L32.7,11.2z"/>
</g>
</svg>
