<?xml version="1.0" encoding="utf-8"?>
<!-- Generator: Adobe Illustrator 21.1.0, SVG Export Plug-In . SVG Version: 6.00 Build 0)  -->
<svg version="1.1" id="Layer_1" xmlns="http://www.w3.org/2000/svg" xmlns:xlink="http://www.w3.org/1999/xlink" x="0px" y="0px"
	 viewBox="0 0 40 26" style="enable-background:new 0 0 40 26;" xml:space="preserve">
<style type="text/css">
	.st0{fill:#37BCEB;}
</style>
<g id="paypal_1_">
	<path id="paypal" class="st0" d="M12.6,12.4c-0.2-0.2-0.5-0.3-0.8-0.3c-0.4,0-0.8,0.1-1.1,0.4c-0.3,0.3-0.4,0.6-0.4,1.1
		c0,0.3,0.1,0.6,0.3,0.7c0.2,0.2,0.5,0.3,0.8,0.3c0.4,0,0.8-0.1,1.1-0.4c0.3-0.3,0.4-0.6,0.4-1C12.9,12.8,12.8,12.6,12.6,12.4z
		 M26.4,10.1c-0.1-0.1-0.3-0.2-0.4-0.2c-0.2,0-0.4,0-0.6,0H25c-0.1,0-0.2,0.1-0.2,0.2l-0.3,1.8l0.6,0c0.5,0,0.9-0.1,1.1-0.3
		c0.3-0.2,0.4-0.5,0.4-1C26.6,10.4,26.5,10.2,26.4,10.1z M32.3,12.4c-0.2-0.2-0.5-0.3-0.8-0.3c-0.4,0-0.8,0.1-1.1,0.4
		c-0.3,0.3-0.4,0.6-0.4,1.1c0,0.3,0.1,0.6,0.3,0.7c0.2,0.2,0.5,0.3,0.8,0.3c0.4,0,0.8-0.1,1.1-0.4c0.3-0.3,0.4-0.6,0.4-1
		C32.7,12.8,32.6,12.6,32.3,12.4z M8.1,12.5c-0.6,0.5-1.3,0.8-2.3,0.8c0,0-0.1,0-0.2,0c-0.1,0-0.2,0-0.3,0c-0.1,0-0.2,0-0.3,0
		c-0.1,0-0.2,0.1-0.3,0.1c-0.1,0.1-0.1,0.1-0.1,0.2l-0.3,1.9c0,0.2-0.2,0.3-0.4,0.3H2.5c-0.1,0-0.1,0-0.2-0.1c0-0.1-0.1-0.1-0.1-0.2
		l1.1-6.9c0-0.2,0.1-0.3,0.4-0.3h2.8c0.7,0,1.3,0.1,1.7,0.4c0.4,0.3,0.7,0.8,0.7,1.4C8.9,11.2,8.6,12,8.1,12.5z M13.9,15.9h-1.2
		c-0.2,0-0.2-0.1-0.2-0.3c0-0.1,0-0.2,0.1-0.4c-0.2,0.2-0.5,0.4-0.8,0.5S11,16,10.7,16c-0.7,0-1.2-0.2-1.6-0.6
		c-0.4-0.4-0.6-0.9-0.6-1.6c0-0.8,0.3-1.5,0.9-2.1c0.6-0.6,1.3-0.9,2.1-0.9c0.8,0,1.3,0.2,1.6,0.7c0-0.4,0.1-0.6,0.3-0.6h1.3
		c0.1,0,0.1,0,0.2,0.1c0,0.1,0.1,0.1,0.1,0.2l-0.7,4.4C14.2,15.8,14.1,15.9,13.9,15.9L13.9,15.9z M22,11.2l-4.4,6.2
		c-0.1,0.1-0.2,0.2-0.3,0.2h-1.3c-0.2,0-0.2-0.1-0.2-0.2c0-0.1,0.5-0.8,1.4-2c0,0-0.1-0.4-0.4-1.2c-0.3-0.7-0.5-1.4-0.7-2.1
		c-0.2-0.6-0.3-1-0.3-1c0-0.1,0-0.1,0.1-0.2c0-0.1,0.1-0.1,0.2-0.1h1.3c0.2,0,0.3,0.1,0.4,0.3l0.8,2.5l1.8-2.6
		c0.1-0.1,0.2-0.2,0.3-0.2h1.3c0.1,0,0.1,0,0.2,0.1C22,11,22,11,22,11.1C22,11.2,22,11.2,22,11.2L22,11.2z M27.8,12.5
		c-0.6,0.5-1.3,0.8-2.3,0.8c0,0-0.1,0-0.2,0c-0.1,0-0.2,0-0.3,0s-0.2,0-0.3,0c-0.1,0-0.2,0.1-0.3,0.1c-0.1,0.1-0.1,0.1-0.1,0.2
		l-0.3,2c0,0.1-0.1,0.2-0.3,0.2h-1.4c-0.1,0-0.1,0-0.2-0.1c0-0.1-0.1-0.1-0.1-0.2l1.1-6.9c0-0.2,0.2-0.3,0.4-0.3h2.8
		c0.7,0,1.3,0.1,1.7,0.4c0.4,0.3,0.7,0.8,0.7,1.4C28.6,11.2,28.3,12,27.8,12.5z M33.6,15.9h-1.2c-0.2,0-0.2-0.1-0.2-0.3
		c0,0,0-0.1,0-0.2c0-0.1,0-0.1,0-0.2c-0.2,0.2-0.5,0.4-0.8,0.5c-0.3,0.1-0.7,0.2-1,0.2c-0.7,0-1.2-0.2-1.6-0.6
		c-0.4-0.4-0.6-0.9-0.6-1.6c0-0.8,0.3-1.5,0.9-2.1c0.6-0.6,1.3-0.9,2.1-0.9c0.8,0,1.3,0.2,1.6,0.7c0-0.4,0.1-0.6,0.3-0.6h1.3
		c0.1,0,0.1,0,0.2,0.1c0,0.1,0.1,0.1,0.1,0.2L34,15.5C34,15.8,33.8,15.9,33.6,15.9L33.6,15.9z M36.7,15.5c0,0.2-0.1,0.3-0.4,0.3
		h-1.1c-0.1,0-0.1,0-0.2-0.1c0-0.1-0.1-0.1-0.1-0.2l0,0l1.1-7c0-0.1,0.1-0.2,0.2-0.2h1.3c0.2,0,0.2,0.1,0.2,0.2v0L36.7,15.5z
		 M6.6,10.1c-0.2-0.1-0.5-0.2-1-0.2H5.3c-0.1,0-0.2,0.1-0.2,0.2l-0.3,1.8l0.6,0c0.5,0,0.8-0.1,1-0.2c0.2-0.1,0.4-0.4,0.5-0.8
		C6.9,10.5,6.8,10.2,6.6,10.1z M39.3,0.6c-0.4-0.4-1-0.6-1.6-0.6H2.2C1.6,0,1.1,0.2,0.7,0.6C0.2,1.1,0,1.6,0,2.2v21.7
		c0,0.6,0.2,1.1,0.7,1.5s1,0.6,1.6,0.6h35.6c0.6,0,1.1-0.2,1.6-0.6s0.7-0.9,0.7-1.5V2.2C40,1.6,39.8,1.1,39.3,0.6z"/>
</g>
</svg>
