<?xml version="1.0" encoding="utf-8"?>
<!-- Generator: Adobe Illustrator 21.1.0, SVG Export Plug-In . SVG Version: 6.00 Build 0)  -->
<svg version="1.1" id="Layer_1" xmlns="http://www.w3.org/2000/svg" xmlns:xlink="http://www.w3.org/1999/xlink" x="0px" y="0px"
	 viewBox="0 0 25 25" style="enable-background:new 0 0 25 25;" xml:space="preserve">
<style type="text/css">
	.st0{fill:#7986CB;}
</style>
<g id="phone_contacts_1_">
	<path id="phone_contacts" class="st0" d="M23.9,19.1c-0.1-0.2-0.5-0.5-1.2-0.9c-0.2-0.1-0.5-0.3-0.9-0.5c-0.4-0.2-0.7-0.4-1-0.6
		c-0.3-0.2-0.6-0.3-0.9-0.5c0,0-0.2-0.1-0.4-0.3c-0.2-0.2-0.4-0.3-0.6-0.3c-0.2-0.1-0.3-0.1-0.5-0.1c-0.2,0-0.5,0.2-0.8,0.5
		c-0.3,0.3-0.6,0.6-0.9,1c-0.3,0.4-0.6,0.7-0.9,1c-0.3,0.3-0.5,0.5-0.7,0.5c-0.1,0-0.2,0-0.4-0.1c-0.1-0.1-0.3-0.1-0.3-0.1
		c-0.1,0-0.2-0.1-0.4-0.2c-0.2-0.1-0.3-0.2-0.3-0.2c-1.5-0.8-2.7-1.8-3.8-2.8c-1.1-1.1-2-2.3-2.8-3.8c0,0-0.1-0.1-0.2-0.3
		c-0.1-0.2-0.2-0.3-0.2-0.4c0-0.1-0.1-0.2-0.1-0.3c-0.1-0.1-0.1-0.3-0.1-0.4C6.5,10,6.7,9.8,7,9.5c0.3-0.3,0.6-0.6,1-0.9
		c0.4-0.3,0.7-0.6,1-0.9c0.3-0.3,0.5-0.6,0.5-0.8c0-0.2,0-0.3-0.1-0.5C9.2,6.3,9.1,6.1,9,5.9C8.8,5.7,8.7,5.5,8.7,5.5
		C8.5,5.2,8.4,4.9,8.2,4.6C8,4.3,7.8,4,7.6,3.6S7.3,2.9,7.1,2.7C6.8,2,6.5,1.6,6.3,1.5c-0.1,0-0.2,0-0.3,0c-0.3,0-0.7,0.1-1.1,0.2
		C4.3,1.7,4,1.8,3.7,1.9C3.2,2.2,2.6,2.8,2,3.9c-0.6,1-0.8,2-0.8,3c0,0.3,0,0.6,0.1,0.9c0,0.3,0.1,0.6,0.2,0.9
		c0.1,0.3,0.2,0.6,0.2,0.8C1.7,9.6,1.8,9.9,2,10.4c0.2,0.4,0.3,0.7,0.3,0.8c0.4,1.1,0.8,2,1.3,2.8c0.9,1.4,2,2.8,3.5,4.3
		c1.5,1.5,2.9,2.6,4.3,3.5c0.8,0.5,1.8,1,2.8,1.3c0.1,0,0.4,0.1,0.8,0.3c0.4,0.2,0.7,0.3,0.9,0.3c0.2,0.1,0.4,0.1,0.8,0.2
		c0.3,0.1,0.7,0.2,0.9,0.2c0.3,0,0.6,0.1,0.9,0.1c1,0,2-0.3,3-0.8c1.1-0.6,1.7-1.2,2-1.7c0.1-0.3,0.2-0.6,0.3-1.1s0.2-0.9,0.2-1.1
		C23.9,19.3,23.9,19.2,23.9,19.1L23.9,19.1z"/>
</g>
</svg>
