<svg version="1.1" xmlns="http://www.w3.org/2000/svg" xmlns:xlink="http://www.w3.org/1999/xlink" width="14" height="14" viewBox="0 0 14 14">
<g id="phone">
<path id="phone" d="M13.045,9.670 C13.009,9.562 12.783,9.405 12.366,9.196 C12.253,9.131 12.092,9.042 11.884,8.929 C11.676,8.816 11.487,8.711 11.317,8.616 C11.147,8.521 10.988,8.429 10.839,8.339 C10.815,8.321 10.741,8.269 10.616,8.183 C10.491,8.097 10.385,8.033 10.299,7.991 C10.213,7.949 10.128,7.929 10.045,7.929 C9.926,7.929 9.777,8.013 9.598,8.183 C9.420,8.353 9.256,8.537 9.107,8.737 C8.958,8.936 8.801,9.121 8.634,9.290 C8.467,9.460 8.330,9.545 8.223,9.545 C8.170,9.545 8.103,9.530 8.022,9.500 C7.942,9.470 7.881,9.445 7.839,9.424 C7.798,9.403 7.726,9.362 7.625,9.299 C7.524,9.237 7.467,9.202 7.455,9.196 C6.640,8.744 5.940,8.226 5.357,7.643 C4.774,7.060 4.256,6.360 3.804,5.545 C3.798,5.533 3.763,5.476 3.701,5.375 C3.638,5.274 3.597,5.202 3.576,5.161 C3.555,5.119 3.530,5.058 3.500,4.978 C3.470,4.897 3.455,4.830 3.455,4.777 C3.455,4.670 3.540,4.533 3.710,4.366 C3.879,4.199 4.064,4.042 4.263,3.893 C4.463,3.744 4.647,3.580 4.817,3.402 C4.987,3.223 5.071,3.074 5.071,2.955 C5.071,2.872 5.051,2.787 5.009,2.701 C4.967,2.615 4.903,2.509 4.817,2.384 C4.731,2.259 4.679,2.185 4.661,2.161 C4.571,2.012 4.479,1.853 4.384,1.683 C4.289,1.513 4.184,1.324 4.071,1.116 C3.958,0.908 3.869,0.747 3.804,0.634 C3.595,0.217 3.438,-0.009 3.330,-0.045 C3.289,-0.063 3.226,-0.071 3.143,-0.071 C2.982,-0.071 2.772,-0.042 2.513,0.018 C2.254,0.077 2.051,0.140 1.902,0.205 C1.604,0.330 1.289,0.693 0.955,1.295 C0.652,1.854 0.500,2.408 0.500,2.955 C0.500,3.116 0.510,3.274 0.531,3.429 C0.552,3.583 0.589,3.754 0.643,3.942 C0.696,4.129 0.740,4.269 0.772,4.362 C0.805,4.454 0.866,4.619 0.955,4.857 C1.045,5.095 1.098,5.241 1.116,5.295 C1.324,5.878 1.571,6.399 1.857,6.857 C2.327,7.613 2.970,8.399 3.786,9.214 C4.601,10.030 5.387,10.673 6.143,11.143 C6.601,11.429 7.122,11.676 7.705,11.884 C7.759,11.902 7.905,11.955 8.143,12.045 C8.381,12.134 8.546,12.195 8.638,12.228 C8.731,12.260 8.871,12.304 9.058,12.357 C9.246,12.411 9.417,12.448 9.571,12.469 C9.726,12.490 9.884,12.500 10.045,12.500 C10.592,12.500 11.146,12.348 11.705,12.045 C12.307,11.711 12.670,11.396 12.795,11.098 C12.860,10.949 12.923,10.746 12.982,10.487 C13.042,10.228 13.071,10.018 13.071,9.857 C13.071,9.774 13.063,9.711 13.045,9.670 C13.045,9.670 13.045,9.670 13.045,9.670 z" fill="#1f3355" />
</g>
</svg>