<?xml version="1.0" encoding="utf-8"?>
<!-- Generator: Adobe Illustrator 21.1.0, SVG Export Plug-In . SVG Version: 6.00 Build 0)  -->
<svg version="1.1" id="Layer_1" xmlns="http://www.w3.org/2000/svg" xmlns:xlink="http://www.w3.org/1999/xlink" x="0px" y="0px"
	 viewBox="0 0 40 26" style="enable-background:new 0 0 40 26;" xml:space="preserve">
<style type="text/css">
	.st0{fill:#37BCEB;}
</style>
<g id="visa_1_">
	<path id="visa" class="st0" d="M33.6,11.5l-0.2-0.9c0,0.1-0.1,0.3-0.2,0.4c-0.1,0.2-0.1,0.3-0.2,0.4L33,11.6c-0.6,1.6-1,2.6-1.1,3
		h2.4L33.6,11.5z M2.2,7.8l0-0.2h4.7c0.7,0,1.2,0.3,1.3,0.9l1,5C8.1,10.6,5.8,8.7,2.2,7.8L2.2,7.8z M15.4,7.6l-4.5,10.9h-3L5.5,9.8
		c0.8,0.3,1.6,0.8,2.3,1.5c0.7,0.7,1.2,1.4,1.5,2.2L9.5,15l2.8-7.4H15.4z M16.5,7.6h2.9l-1.8,10.9h-2.9L16.5,7.6z M27.7,10.2
		l-0.3-0.1c-0.6-0.3-1.3-0.4-2.2-0.4c-0.5,0-0.9,0.1-1.2,0.3c-0.3,0.2-0.4,0.4-0.4,0.7c0,0.2,0.1,0.5,0.4,0.6
		c0.3,0.2,0.7,0.4,1.2,0.7c1.6,0.8,2.4,1.7,2.4,2.9c0,1.1-0.5,2-1.4,2.7c-0.9,0.7-2.1,1-3.6,1c-1.3,0-2.4-0.2-3.2-0.6l0.4-2.4
		l0.4,0.2c0.8,0.4,1.7,0.6,2.7,0.6c0.5,0,0.9-0.1,1.2-0.3c0.3-0.2,0.5-0.4,0.5-0.8c0-0.2-0.1-0.5-0.3-0.7c-0.2-0.2-0.6-0.4-1.2-0.7
		c-1.7-0.8-2.5-1.8-2.5-2.9c0-1.1,0.5-1.9,1.4-2.6c0.9-0.7,2.1-1,3.5-1c0.9,0,1.8,0.2,2.6,0.5L27.7,10.2z M37.8,18.5h-2.7
		c-0.2-0.8-0.3-1.4-0.3-1.6h-3.7l-0.6,1.6h-3l4.3-10c0.3-0.6,0.8-0.9,1.5-0.9h2.2L37.8,18.5z M39.3,0.7c-0.4-0.4-1-0.6-1.6-0.6H2.2
		C1.6,0,1.1,0.2,0.7,0.7S0,1.6,0,2.2v21.7c0,0.6,0.2,1.1,0.7,1.5c0.4,0.4,1,0.6,1.6,0.6h35.6c0.6,0,1.1-0.2,1.6-0.6
		c0.4-0.4,0.7-0.9,0.7-1.5V2.2C40,1.6,39.8,1.1,39.3,0.7z"/>
</g>
</svg>
