<?xml version="1.0" encoding="utf-8"?>
<!-- Generator: Adobe Illustrator 21.1.0, SVG Export Plug-In . SVG Version: 6.00 Build 0)  -->
<svg version="1.1" id="Layer_1" xmlns="http://www.w3.org/2000/svg" xmlns:xlink="http://www.w3.org/1999/xlink" x="0px" y="0px"
	 viewBox="0 0 20 20" style="enable-background:new 0 0 20 20;" xml:space="preserve">
<style type="text/css">
	.st0{fill:#FFFFFF;}
</style>
<g id="close_1_">
	<path id="close" class="st0" d="M11.8,10l7.9-7.9c0.5-0.5,0.5-1.3,0-1.8c-0.5-0.5-1.3-0.5-1.8,0L10,8.2L2.1,0.4
		c-0.5-0.5-1.3-0.5-1.8,0c-0.5,0.5-0.5,1.3,0,1.8L8.2,10l-7.9,7.9c-0.5,0.5-0.5,1.3,0,1.8C0.6,19.9,0.9,20,1.2,20
		c0.3,0,0.6-0.1,0.9-0.4l7.9-7.9l7.9,7.9c0.2,0.2,0.6,0.4,0.9,0.4c0.3,0,0.6-0.1,0.9-0.4c0.5-0.5,0.5-1.3,0-1.8L11.8,10z"/>
</g>
</svg>
