<?xml version="1.0" encoding="utf-8"?>
<!-- Generator: Adobe Illustrator 21.1.0, SVG Export Plug-In . SVG Version: 6.00 Build 0)  -->
<svg version="1.1" id="Layer_1" xmlns="http://www.w3.org/2000/svg" xmlns:xlink="http://www.w3.org/1999/xlink" x="0px" y="0px"
	 viewBox="0 0 120 62" style="enable-background:new 0 0 120 62;" xml:space="preserve">
<style type="text/css">
	.st0{fill:#1F3355;}
	.st1{fill:#1F3355;stroke:#1F3355;stroke-width:0.75;stroke-miterlimit:10;}
</style>
<title>logo_black</title>
<path class="st0" d="M3.3,47.5L0.1,35.1h1.7l1.5,6.3c0.4,1.5,0.7,3.1,0.9,4.3l0,0c0.2-1.2,0.6-2.7,1-4.3l1.7-6.3h1.7l1.5,6.3
	c0.4,1.5,0.7,3,0.9,4.3l0,0c0.3-1.4,0.6-2.8,1-4.3l1.6-6.3h1.6l-3.5,12.5H10L8.5,41c-0.3-1.3-0.6-2.7-0.8-4.1l0,0
	c-0.3,1.4-0.6,2.7-1,4.1L5,47.5H3.3z"/>
<path class="st0" d="M16.9,35.2c1-0.2,2-0.3,3.1-0.3c1.3-0.1,2.6,0.2,3.6,1c0.7,0.6,1,1.5,1,2.4c0,1.5-0.9,2.8-2.3,3.2v0.1
	c1,0.5,1.7,1.4,1.8,2.6c0.2,1.2,0.6,2.3,1,3.4h-1.7c-0.4-1-0.7-2-0.8-3c-0.4-1.7-1-2.4-2.5-2.4h-1.5v5.4H17V35.2H16.9z M18.5,40.9
	h1.6c1.7,0,2.8-0.9,2.8-2.4c0-1.6-1.2-2.3-2.9-2.3c-0.5,0-1.1,0-1.6,0.2L18.5,40.9z"/>
<path class="st0" d="M28.4,35.1v12.5h-1.6V35.1H28.4z"/>
<path class="st0" d="M33.6,36.4h-3.8V35H39v1.4h-3.8v11.1h-1.6C33.6,47.5,33.6,36.4,33.6,36.4z"/>
<path class="st0" d="M46.8,41.7H42v4.5h5.4v1.3h-7V35.1h6.7v1.3H42v3.9h4.8V41.7z"/>
<path class="st0" d="M60,42c-0.1-1.7-0.2-3.8-0.2-5.4h-0.1c-0.4,1.5-0.9,3-1.6,4.7l-2.2,6h-1.2l-2-5.9c-0.6-1.8-1.1-3.4-1.4-4.8l0,0
	c0,1.5-0.1,3.6-0.2,5.5l-0.3,5.3h-1.6L50,35h2l2.1,6c0.5,1.5,0.9,2.9,1.3,4.2h0.1c0.3-1.3,0.8-2.6,1.3-4.2l2.2-6h2l0.8,12.4h-1.6
	L60,42z"/>
<path class="st0" d="M67.1,47.5v-5.3L63.2,35H65l1.8,3.4c0.5,0.9,0.8,1.7,1.2,2.6l0,0c0.3-0.8,0.8-1.6,1.3-2.6l1.8-3.4h1.8l-4.2,7.2
	v5.3H67.1z"/>
<path class="st0" d="M80.6,41.7h-4.8v4.5h5.4v1.3h-7V35.1h6.7v1.3h-5.1v3.9h4.8V41.7z"/>
<path class="st0" d="M83,45.5c0.9,0.5,1.9,0.8,2.9,0.8c1.6,0,2.6-0.9,2.6-2.1s-0.7-1.8-2.3-2.5c-2-0.7-3.3-1.8-3.3-3.5
	c0-1.9,1.6-3.4,4-3.4c1,0,1.9,0.2,2.8,0.6l-0.4,1.3c-0.7-0.4-1.5-0.6-2.3-0.6c-1.7,0-2.3,1-2.3,1.9c0,1.2,0.8,1.7,2.5,2.4
	c2.1,0.8,3.2,1.8,3.2,3.7S89,47.7,86,47.7c-1.1,0-2.2-0.3-3.2-0.8L83,45.5z"/>
<path class="st0" d="M92.1,45.5C93,46,94,46.3,95,46.3c1.6,0,2.6-0.9,2.6-2.1s-0.7-1.8-2.3-2.5C93.3,41,92,40,92,38.2
	c0-1.9,1.6-3.4,4-3.4c1,0,1.9,0.2,2.8,0.6l-0.4,1.3c-0.7-0.4-1.5-0.6-2.3-0.6c-1.7,0-2.3,1-2.3,1.9c0,1.2,0.8,1.7,2.5,2.4
	c2.1,0.8,3.2,1.8,3.2,3.7s-1.4,3.6-4.4,3.6c-1.1,0-2.2-0.3-3.2-0.8L92.1,45.5z"/>
<path class="st0" d="M103.5,43.6l-1.3,3.9h-1.7l4.2-12.4h1.9l4.3,12.4h-1.7l-1.3-3.9H103.5z M107.5,42.3l-1.2-3.6
	c-0.3-0.8-0.5-1.5-0.7-2.3l0,0c-0.2,0.7-0.4,1.5-0.6,2.3l-1.2,3.6H107.5z"/>
<path class="st0" d="M114.1,47.5v-5.3l-3.9-7.2h1.8l1.8,3.4c0.5,0.9,0.8,1.7,1.2,2.6l0,0c0.3-0.8,0.8-1.6,1.3-2.6l1.8-3.4h1.8
	l-4.2,7.2v5.3H114.1z"/>
<path class="st1" d="M67.3,31.1H54c-0.3,0-0.6-0.2-0.6-0.6c-0.1-1.7-0.8-3.3-1.9-4.5l0,0c-6-5-6.7-14-1.7-20s14.1-6.8,20.1-1.7
	s6.8,14.1,1.7,20.1c-0.5,0.6-1.1,1.2-1.8,1.7c-1.1,1.3-1.7,2.8-1.9,4.4C68,30.9,67.7,31.2,67.3,31.1L67.3,31.1z M54.6,29.8h12.2
	c0.2-1.7,1-3.4,2.2-4.7c5.5-4.6,6.3-12.8,1.7-18.3S57.9,0.5,52.4,5.1s-6.3,12.8-1.7,18.3c0.5,0.6,1.1,1.2,1.7,1.7l0.1,0.1
	C53.6,26.5,54.3,28.1,54.6,29.8z"/>
<path class="st1" d="M70.5,24.1c0.3,0,0.3-0.6,0.6-0.6l-10-15.6c-0.1-0.1-0.2-0.2-0.3-0.2h-0.2c-0.1,0-0.1,0.1-0.2,0.1L50.2,23.3
	c0.3,0,0.3,0.5,0.6,0.6l9.6-14.3V19c-1,0.3-1.8,1.2-1.7,2.3c-0.1,1.2,0.9,2.3,2.1,2.4l0,0c1.2-0.1,2.2-1.1,2.1-2.4
	c0-0.6-0.2-1.2-0.6-1.7c-0.3-0.3-0.7-0.5-1.1-0.6V9.6L70.5,24.1z M61.7,20.3c0.2,0.3,0.4,0.6,0.4,1c0,0.8-0.6,1.4-1.3,1.5l0,0
	c-0.8,0-1.5-0.7-1.5-1.5s0.7-1.5,1.5-1.5C61.1,19.8,61.5,20,61.7,20.3L61.7,20.3z"/>
<path class="st0" d="M60.7,30"/>
<path class="st0" d="M69.7,52.1h-16c-0.4,0-0.8-0.3-0.8-0.8s0.3-0.8,0.8-0.8h16.1c0.4,0,0.8,0.3,0.8,0.8S70.2,52.1,69.7,52.1z"/>
<path class="st0" d="M69.7,56.8h-16c-0.4,0-0.8-0.3-0.8-0.8s0.3-0.8,0.8-0.8h16.1c0.4,0,0.8,0.3,0.8,0.8S70.2,56.8,69.7,56.8z"/>
<path class="st0" d="M65.1,61.5h-6.7c-0.4,0-0.8-0.3-0.8-0.8s0.3-0.8,0.8-0.8h6.7c0.4,0,0.8,0.3,0.8,0.8S65.5,61.5,65.1,61.5
	L65.1,61.5z"/>
</svg>
