<?xml version="1.0" encoding="utf-8"?>
<!-- Generator: Adobe Illustrator 19.0.0, SVG Export Plug-In . SVG Version: 6.00 Build 0)  -->
<svg version="1.1" id="Layer_1" xmlns="http://www.w3.org/2000/svg" xmlns:xlink="http://www.w3.org/1999/xlink" x="0px" y="0px"
	 viewBox="-419 250 120 62" style="enable-background:new -419 250 120 62;" xml:space="preserve">
<style type="text/css">
	.st0{fill:url(#SVGID_1_);stroke:#115F00;stroke-width:0.75;stroke-miterlimit:10;}
	.st1{fill:#1F3355;stroke:#115F00;stroke-width:0.75;stroke-miterlimit:10;}
	.st2{fill:#1F3355;}
	.st3{fill:#115F00;}
	.st4{font-family:'MyriadPro-Regular';}
	.st5{font-size:14px;}
	.st6{font-family:'MSReferenceSansSerif';}
	.st7{font-size:10px;}
</style>
<title>logo_black</title>
<linearGradient id="SVGID_1_" gradientUnits="userSpaceOnUse" x1="-409.3642" y1="282.1598" x2="-385.4892" y2="282.1598" gradientTransform="matrix(-1 0 0 -1 -788.375 562.4348)">
	<stop  offset="0" style="stop-color:#FFFFFF"/>
	<stop  offset="1" style="stop-color:#000000"/>
</linearGradient>
<path class="st0" d="M-396.5,268.1h11.1c0.3,0,0.5,0.2,0.5,0.5c0.1,1.4,0.7,2.7,1.6,3.6l0,0c5,4,5.6,11.3,1.4,16.1
	c-4.2,4.8-11.8,5.5-16.8,1.4s-5.7-11.4-1.4-16.2c0.4-0.5,0.9-1,1.5-1.4c0.9-1,1.4-2.3,1.6-3.5C-397,268.3-396.8,268.1-396.5,268.1
	L-396.5,268.1z M-385.8,269.2H-396c-0.2,1.4-0.8,2.7-1.8,3.8c-4.6,3.7-5.3,10.3-1.4,14.7c3.9,4.4,10.7,5.1,15.3,1.4
	c4.6-3.7,5.3-10.3,1.4-14.7c-0.4-0.5-0.9-1-1.4-1.4l-0.1-0.1C-385,271.8-385.6,270.5-385.8,269.2z"/>
<path class="st1" d="M-399.1,273.8c-0.3,0-0.3,0.5-0.5,0.5l8.4,12.6c0.1,0.1,0.2,0.2,0.3,0.2h0.2c0.1,0,0.1-0.1,0.2-0.1l8.5-12.5
	c-0.3,0-0.3-0.4-0.5-0.5l-8,11.5v-7.6c0.8-0.2,1.5-1,1.4-1.9c0.1-1-0.8-1.9-1.8-1.9l0,0c-1,0.1-1.8,0.9-1.8,1.9c0,0.5,0.2,1,0.5,1.4
	c0.3,0.2,0.6,0.4,0.9,0.5v7.6L-399.1,273.8z M-391.8,276.8c-0.2-0.2-0.3-0.5-0.3-0.8c0-0.6,0.5-1.1,1.1-1.2l0,0
	c0.7,0,1.3,0.6,1.3,1.2s-0.6,1.2-1.3,1.2C-391.3,277.2-391.6,277.1-391.8,276.8L-391.8,276.8z"/>
<path class="st2" d="M-390.9,269"/>
<text transform="matrix(1 0 0 1 -377.6358 277.2358)" class="st3 st4 st5">Homework</text>
<text transform="matrix(1 0 0 1 -377.6358 286.5576)" class="st2 st6 st7">Bubble</text>
</svg>
