<?xml version="1.0" encoding="utf-8"?>
<!-- Generator: Adobe Illustrator 21.1.0, SVG Export Plug-In . SVG Version: 6.00 Build 0)  -->
<svg version="1.1" id="Layer_1" xmlns="http://www.w3.org/2000/svg" xmlns:xlink="http://www.w3.org/1999/xlink" x="0px" y="0px"
	 viewBox="0 0 109.5 82.5" style="enable-background:new 0 0 109.5 82.5;" xml:space="preserve">
<style type="text/css">
	.st0{fill:none;stroke:#FFFFFF;stroke-width:2;stroke-miterlimit:10;}
	.st1{fill:url(#XMLID_2_);fill-opacity:0;}
	.st2{fill:url(#XMLID_6_);fill-opacity:0;}
	.st3{fill:#BC59CE;}
	.st4{fill:#F4A6FF;}
	.st5{fill:#E5E5E5;}
	.st6{fill:#FFFFFF;}
	.st7{fill:#7986CB;}
	.st8{fill:#3949AB;}
	.st9{opacity:0.8;fill:#FFFFFF;enable-background:new    ;}
	.st10{fill:#37474F;}
	.st11{fill:none;stroke:#F06392;stroke-width:2;stroke-linecap:round;stroke-linejoin:round;stroke-miterlimit:10;}
</style>
<g id="XMLID_1336_">
	<path id="XMLID_1149_" class="st0" d="M30.6,25.4c0,0.9-0.7,1.3-1.5,0.8s-1.5-1.6-1.5-2.5s0.7-1.3,1.5-0.8S30.6,24.5,30.6,25.4z"/>
	<path id="XMLID_1148_" class="st0" d="M27.5,41.4c0,3.2-2.2,4.5-5,2.9c-2.7-1.6-5-5.4-5-8.6c0-3.2,2.2-4.5,5-2.9
		S27.5,38.2,27.5,41.4z"/>
	
		<linearGradient id="XMLID_2_" gradientUnits="userSpaceOnUse" x1="7.7" y1="-17.7875" x2="33.0711" y2="-17.7875" gradientTransform="matrix(1 0 0 -1 0 339)">
		<stop  offset="0" style="stop-color:#266CE1"/>
		<stop  offset="9.567411e-02" style="stop-color:#2F72E2;stop-opacity:0.9043"/>
		<stop  offset="0.2534" style="stop-color:#4883E6;stop-opacity:0.7466"/>
		<stop  offset="0.4535" style="stop-color:#719FEB;stop-opacity:0.5465"/>
		<stop  offset="0.6883" style="stop-color:#A9C5F3;stop-opacity:0.3117"/>
		<stop  offset="0.9494" style="stop-color:#F0F5FD;stop-opacity:5.058551e-02"/>
		<stop  offset="1" style="stop-color:#FFFFFF;stop-opacity:0"/>
	</linearGradient>
	<path id="XMLID_34_" class="st1" d="M33.1,355.1c-7.8,4.5-17.5,4.5-25.4,0"/>
	
		<linearGradient id="XMLID_6_" gradientUnits="userSpaceOnUse" x1="119.9" y1="-15.5" x2="150.9" y2="-15.5" gradientTransform="matrix(1 0 0 -1 0 339)">
		<stop  offset="0" style="stop-color:#266CE1"/>
		<stop  offset="9.567411e-02" style="stop-color:#2F72E2;stop-opacity:0.9043"/>
		<stop  offset="0.2534" style="stop-color:#4883E6;stop-opacity:0.7466"/>
		<stop  offset="0.4535" style="stop-color:#719FEB;stop-opacity:0.5465"/>
		<stop  offset="0.6883" style="stop-color:#A9C5F3;stop-opacity:0.3117"/>
		<stop  offset="0.9494" style="stop-color:#F0F5FD;stop-opacity:5.058551e-02"/>
		<stop  offset="1" style="stop-color:#FFFFFF;stop-opacity:0"/>
	</linearGradient>
	<line id="XMLID_33_" class="st2" x1="119.9" y1="354.5" x2="150.9" y2="354.5"/>
	<g id="XMLID_4084_">
		<path id="XMLID_22_" class="st3" d="M119.9,354.5"/>
	</g>
	<g id="XMLID_4077_">
		<path id="XMLID_21_" class="st4" d="M119.9,354.5"/>
	</g>
	<path id="XMLID_36_" class="st5" d="M65.8,45.6c0.2-1.3,4.6-3.9,7.6-2.3"/>
	<path id="XMLID_35_" class="st6" d="M64.8,47.2c0.4-2.7,3.5-4.2,5.9-2.8"/>
	<path id="XMLID_15_" class="st7" d="M68.9,53.1c0.3-1.7,2.1-2.6,3.6-1.7"/>
	<path id="XMLID_13_" class="st8" d="M70.5,52.3c0.1-0.5,0.3-0.9,0.6-1.2c-1,0.1-2,0.9-2.2,2"/>
	<path id="XMLID_12_" class="st9" d="M83.5,78.6"/>
	<g id="XMLID_1177_">
		<path id="XMLID_1141_" class="st9" d="M74.6,72.3L35.7,49.9c-0.6-0.3-1-1-1-1.7V8.3c0-1.5,1.6-2.4,2.9-1.7l38,22
			c1.1,0.6,1.8,1.8,1.8,3.1v38.9C77.5,72.1,75.9,73.1,74.6,72.3z"/>
		<g id="XMLID_1174_">
			<path id="XMLID_1182_" class="st10" d="M56.2,50.8l-5.3-9.2l-10.4,6c-0.6,0.4-1.4,0.1-1.8-0.5s-0.1-1.4,0.5-1.8L51.9,38l5.3,9.2
				l13.3-7.7c0.6-0.4,1.4-0.1,1.8,0.5c0.4,0.6,0.1,1.4-0.5,1.8L56.2,50.8z"/>
			<path id="XMLID_1183_" class="st10" d="M72.5,49.2c-0.7,0-1.3-0.6-1.3-1.3v-6.7l-5.3-3c-0.6-0.4-0.8-1.2-0.5-1.8
				c0.4-0.6,1.2-0.8,1.8-0.5l6.6,3.8v8.2C73.8,48.6,73.2,49.2,72.5,49.2z"/>
		</g>
		<line id="XMLID_1181_" class="st11" x1="40.2" y1="17.3" x2="49.1" y2="22.4"/>
		<line id="XMLID_4_" class="st11" x1="52.4" y1="24.6" x2="61.4" y2="29.7"/>
	</g>
</g>
</svg>