<?xml version="1.0" encoding="utf-8"?>
<!-- Generator: Adobe Illustrator 21.1.0, SVG Export Plug-In . SVG Version: 6.00 Build 0)  -->
<svg version="1.1" id="Layer_1" xmlns="http://www.w3.org/2000/svg" xmlns:xlink="http://www.w3.org/1999/xlink" x="0px" y="0px"
	 viewBox="0 0 106 97" style="enable-background:new 0 0 106 97;" xml:space="preserve">
<style type="text/css">
	.st0{fill:none;stroke:#FFFFFF;stroke-width:2;stroke-miterlimit:10;}
	.st1{opacity:0.8;fill:#FFFFFF;enable-background:new    ;}
	.st2{fill:#F06392;}
	.st3{fill:none;stroke:#37474F;stroke-linecap:round;stroke-miterlimit:10;}
</style>
<g id="XMLID_1336_">
	<path id="XMLID_1150_" class="st0" d="M93.9,82.3c0,0.9-0.7,1.3-1.5,0.8s-1.5-1.6-1.5-2.5s0.7-1.3,1.5-0.8
		C93.3,80.2,93.9,81.4,93.9,82.3z"/>
	<path id="XMLID_1160_" class="st0" d="M15.6,55.4c0,0.9-0.7,1.3-1.5,0.8s-1.5-1.6-1.5-2.5s0.7-1.3,1.5-0.8
		C14.9,53.3,15.6,54.5,15.6,55.4z"/>
	<path id="XMLID_1135_" class="st1" d="M76.3,91.9L25.7,62.7c-0.8-0.4-1.3-1.3-1.3-2.2v-52c0-1.9,2.1-3.1,3.8-2.2l49.5,28.6
		c1.5,0.8,2.4,2.4,2.4,4.1v50.7C80.1,91.7,78,92.9,76.3,91.9z"/>
	<g id="XMLID_1069_">
		<path id="XMLID_1074_" class="st2" d="M43.6,34.6l-12.1-7c-0.2-0.1-0.3-0.3-0.3-0.5v-8c0-0.5,0.5-0.7,0.9-0.5l11.8,6.8
			c0.3,0.2,0.6,0.6,0.6,1v7.7C44.5,34.6,44,34.8,43.6,34.6z"/>
		<path id="XMLID_1140_" class="st2" d="M40.7,61.8l-9.2-5.3c-0.1-0.1-0.2-0.2-0.2-0.4v-9.5c0-0.4,0.4-0.6,0.7-0.4l9,5.2
			c0.3,0.2,0.4,0.4,0.4,0.7v9.3C41.4,61.7,41,62,40.7,61.8z"/>
		<line id="XMLID_1161_" class="st3" x1="31.3" y1="33.2" x2="73.3" y2="57.4"/>
		<line id="XMLID_1163_" class="st3" x1="31.3" y1="36.3" x2="73.3" y2="60.5"/>
		<line id="XMLID_1164_" class="st3" x1="31.3" y1="39.4" x2="73.3" y2="63.7"/>
		<line id="XMLID_1173_" class="st3" x1="49.1" y1="30.9" x2="73.3" y2="44.8"/>
		<line id="XMLID_1172_" class="st3" x1="49.1" y1="34" x2="73.3" y2="48"/>
		<line id="XMLID_1171_" class="st3" x1="49.1" y1="37.1" x2="73.3" y2="51.1"/>
		<line id="XMLID_1170_" class="st3" x1="31.3" y1="29.9" x2="73.3" y2="54.2"/>
		<line id="XMLID_1166_" class="st3" x1="44.5" y1="53.3" x2="73.3" y2="69.9"/>
		<line id="XMLID_1167_" class="st3" x1="44.5" y1="56.4" x2="73.3" y2="73"/>
		<line id="XMLID_1168_" class="st3" x1="44.5" y1="59.5" x2="73.3" y2="76.1"/>
		<line id="XMLID_1169_" class="st3" x1="44.5" y1="62.6" x2="73.3" y2="79.2"/>
	</g>
</g>
</svg>