<?xml version="1.0" encoding="utf-8"?>
<!-- Generator: Adobe Illustrator 21.1.0, SVG Export Plug-In . SVG Version: 6.00 Build 0)  -->
<svg version="1.1" id="Layer_1" xmlns="http://www.w3.org/2000/svg" xmlns:xlink="http://www.w3.org/1999/xlink" x="0px" y="0px"
	 viewBox="0 0 313 380" style="enable-background:new 0 0 313 380;" xml:space="preserve">
<style type="text/css">
	.st0{fill:#0325EF;}
	.st1{fill:none;stroke:#FFFFFF;stroke-width:2;stroke-miterlimit:10;}
	.st2{fill:url(#XMLID_13_);fill-opacity:0;}
	.st3{fill:url(#XMLID_14_);fill-opacity:0;}
	.st4{fill:#263238;}
	.st5{fill:#2549AF;}
	.st6{fill:#90A4AE;}
	.st7{fill:#2E7AE5;}
	.st8{fill:#ECEFF1;}
	.st9{fill:url(#XMLID_15_);}
	.st10{fill:#CFD8DC;}
	.st11{fill:url(#XMLID_16_);}
	.st12{fill:url(#XMLID_17_);}
	.st13{fill:url(#XMLID_18_);}
	.st14{fill:#F4A6FF;}
	.st15{fill:#E798F4;}
	.st16{fill:url(#XMLID_19_);}
	.st17{fill:url(#XMLID_20_);}
	.st18{fill:#FFFFFF;}
	.st19{fill:none;stroke:#0F294C;stroke-width:1.5;stroke-linecap:round;stroke-miterlimit:10;}
	.st20{fill:#D81B61;}
	.st21{fill:#F06392;}
	.st22{opacity:0.5;fill:url(#XMLID_21_);enable-background:new    ;}
	.st23{fill:#EC407A;}
	.st24{fill:#FAA629;}
	.st25{fill:#F78C1F;}
	.st26{fill:url(#XMLID_22_);}
	.st27{fill:#FCB64E;}
	.st28{fill:#229795;}
	.st29{fill:#6FC9C5;}
	.st30{fill:url(#XMLID_23_);}
	.st31{fill:#56BAB3;}
	.st32{fill:url(#XMLID_24_);}
	.st33{fill:url(#XMLID_25_);}
	.st34{fill:#E5E5E5;}
	.st35{fill:#78909C;}
	.st36{fill:url(#XMLID_26_);}
	.st37{fill:#BC59CE;}
	.st38{fill:url(#XMLID_27_);}
	.st39{fill:#BEC8CC;}
	.st40{enable-background:new    ;}
	.st41{fill:#3F6570;}
	.st42{fill:#2E3333;}
	.st43{fill:#414849;}
	.st44{fill:#D0D2D3;}
	.st45{fill:#7986CB;}
	.st46{fill:#3949AB;}
	.st47{fill:none;stroke:#B3E5FC;stroke-width:2;stroke-linecap:round;stroke-linejoin:round;stroke-miterlimit:10;}
	.st48{fill:#FFE0B2;}
	.st49{fill:#0F294C;}
	.st50{fill:url(#XMLID_28_);}
	.st51{fill:url(#XMLID_29_);}
	.st52{fill:url(#XMLID_30_);}
	.st53{fill:#863D11;}
	.st54{fill:#9D5B36;}
	.st55{fill:#3E2723;}
	.st56{fill:#378F43;}
	.st57{fill:url(#XMLID_31_);}
	.st58{fill:#346A34;}
	.st59{fill:#FDD836;}
	.st60{fill:#37474F;}
	.st61{opacity:0.8;fill:#FFFFFF;enable-background:new    ;}
	.st62{opacity:0.85;}
	.st63{fill:#FF4D80;}
	.st64{fill:none;stroke:#37474F;stroke-linecap:round;stroke-miterlimit:10;}
</style>
<g id="XMLID_1336_">
	<path id="XMLID_10_" class="st0" d="M86.5,99.3c0,0,2.9,0.9,4.5,6.5c0,0,7.2-15.2-13.7-26.8c-8.1-4.5-15.4-6-24-2.6
		c-9.1,3.6-16.7,8.2-21.2,17.3c-11,22.1,0.2,48.1,23.6,55.4c3.9,1.2,8.1,1.8,12.1,0.9c13.9-3.3,6.7-21.8,12.2-32.1
		C88,103.3,86.5,99.3,86.5,99.3z"/>
	<path id="XMLID_3973_" class="st1" d="M253.6,143.1c0,0.9-0.7,1.3-1.5,0.8s-1.5-1.6-1.5-2.5s0.7-1.3,1.5-0.8
		C252.9,141,253.6,142.2,253.6,143.1z"/>
	<path id="XMLID_1143_" class="st1" d="M133.7,38.9c0,0.9-0.7,1.3-1.5,0.8s-1.5-1.6-1.5-2.5s0.7-1.3,1.5-0.8
		C133,36.8,133.7,38,133.7,38.9z"/>
	<path id="XMLID_1150_" class="st1" d="M271.9,108.3c0,0.9-0.7,1.3-1.5,0.8s-1.5-1.6-1.5-2.5s0.7-1.3,1.5-0.8
		C271.3,106.2,271.9,107.4,271.9,108.3z"/>
	<path id="XMLID_1186_" class="st1" d="M245,165.1c0,0.9-0.7,1.3-1.5,0.8s-1.5-1.6-1.5-2.5s0.7-1.3,1.5-0.8
		C244.4,163,245,164.1,245,165.1z"/>
	<path id="XMLID_537_" class="st1" d="M267,138.2c0,3.2-2.2,4.5-5,2.9c-2.7-1.6-5-5.4-5-8.6c0-3.2,2.2-4.5,5-2.9S267,135,267,138.2z
		"/>
	
		<linearGradient id="XMLID_13_" gradientUnits="userSpaceOnUse" x1="27.7" y1="41.05" x2="133.979" y2="41.05" gradientTransform="matrix(1 0 0 1 0 307)">
		<stop  offset="0" style="stop-color:#266CE1"/>
		<stop  offset="9.567411e-02" style="stop-color:#2F72E2;stop-opacity:0.9043"/>
		<stop  offset="0.2534" style="stop-color:#4883E6;stop-opacity:0.7466"/>
		<stop  offset="0.4535" style="stop-color:#719FEB;stop-opacity:0.5465"/>
		<stop  offset="0.6883" style="stop-color:#A9C5F3;stop-opacity:0.3117"/>
		<stop  offset="0.9494" style="stop-color:#F0F5FD;stop-opacity:5.058551e-02"/>
		<stop  offset="1" style="stop-color:#FFFFFF;stop-opacity:0"/>
	</linearGradient>
	<path id="XMLID_4254_" class="st2" d="M68.2,376.6l-36-20.8c-6-3.4-6-12,0-15.5l36-20.8c7.9-4.5,17.6-4.5,25.4,0l36,20.8
		c6,3.4,6,12,0,15.5l-36,20.8C85.8,381.1,76.1,381.1,68.2,376.6z"/>
	
		<linearGradient id="XMLID_14_" gradientUnits="userSpaceOnUse" x1="31" y1="-14.7" x2="315.7" y2="-14.7" gradientTransform="matrix(1 0 0 1 0 307)">
		<stop  offset="0" style="stop-color:#266CE1"/>
		<stop  offset="9.567411e-02" style="stop-color:#2F72E2;stop-opacity:0.9043"/>
		<stop  offset="0.2534" style="stop-color:#4883E6;stop-opacity:0.7466"/>
		<stop  offset="0.4535" style="stop-color:#719FEB;stop-opacity:0.5465"/>
		<stop  offset="0.6883" style="stop-color:#A9C5F3;stop-opacity:0.3117"/>
		<stop  offset="0.9494" style="stop-color:#F0F5FD;stop-opacity:5.058551e-02"/>
		<stop  offset="1" style="stop-color:#FFFFFF;stop-opacity:0"/>
	</linearGradient>
	<polygon id="XMLID_4253_" class="st3" points="180.4,376 211.4,376 315.7,315.8 130.1,208.6 31,267.7 204,366 180.5,366 	"/>
	<g id="XMLID_4250_">
		<path id="XMLID_4252_" class="st4" d="M99.4,308.7c0,0,14.5-5,19.3-3.5c4.8,1.5,0.8,10.3-11,16.7c-11.7,6.4-16.5,4.5-18.8,1.5
			c-1.9-2.3,1.6-11.8,1.6-11.8L99.4,308.7z"/>
		<path id="XMLID_4251_" class="st5" d="M80.6,219.8c0,0,16.3-9.7,22.8,6.1c6.1,14.7-1.9,76.8-3.1,86.2c-0.1,0.8-0.6,1.5-1.4,1.9
			c-1.3,0.6-3.5,1.3-6,0.4c-1.2-0.4-2-1.4-2.3-2.6l-14.9-61.9L80.6,219.8z"/>
	</g>
	<g id="XMLID_4247_">
		<path id="XMLID_4249_" class="st4" d="M123.3,321.8c0,0,14.5-5,19.3-3.5s0.8,10.3-11,16.7c-11.7,6.4-16.5,4.5-18.8,1.5
			c-1.9-2.3,1.6-11.8,1.6-11.8L123.3,321.8z"/>
		<path id="XMLID_4248_" class="st5" d="M104.4,232.9c0,0,16.3-9.7,22.8,6.1c6.1,14.7-1.9,76.8-3.1,86.2c-0.1,0.8-0.6,1.5-1.4,1.9
			c-1.3,0.6-3.5,1.3-6,0.4c-1.2-0.4-2-1.4-2.3-2.6L99.5,263L104.4,232.9z"/>
	</g>
	<g id="XMLID_4231_">
		<g id="XMLID_4236_">
			<g id="XMLID_4239_">
				<path id="XMLID_4246_" class="st6" d="M70.3,344.8l26.8-15.5c0.7-0.4,1-1,1-1.5h0.1v6.5l-0.1,0.1c-0.1,0.5-0.4,0.9-1,1.3
					l-26.8,15.5V344.8L70.3,344.8z"/>
				<path id="XMLID_4245_" class="st6" d="M98.2,360.6L98.2,360.6v-6.4V354l-55.7-26.3v6.5l0.1,0.1c0.1,0.5,0.4,0.9,1,1.3l47,27.1
					c1.6,0.9,4.3,0.8,6.2-0.3C97.6,361.9,98.1,361.3,98.2,360.6z"/>
				<g id="XMLID_4240_">
					<path id="XMLID_4244_" class="st6" d="M44,362.5c-0.9-0.5-1.4-1.2-1.5-1.9l0,0v-6.3c0.1,0.6,0.6,1.3,1.5,1.8
						c1.8,1.1,4.6,1.2,6.2,0.3l20.2-11.7l0,0v6.3l-20.2,11.7C48.5,363.6,45.8,363.5,44,362.5z"/>
					<path id="XMLID_4243_" class="st7" d="M97.1,352.6L76.9,341l20.2-11.7c0.7-0.4,1-1,1-1.5c0-0.7-0.4-1.4-1.5-2
						c-1.8-1.1-4.6-1.2-6.2-0.3l-20.2,11.7L50,325.5c-1.6-0.9-4.3-0.8-6.2,0.3c-1.8,1.1-2,2.6-0.4,3.6L63.7,341l-20.2,11.7
						c-0.7,0.4-0.9,0.9-1,1.4c0,0.1-0.1,0.2-0.1,0.3l0,0c0.1,0.6,0.6,1.3,1.5,1.8c1.8,1.1,4.6,1.2,6.2,0.3l20.2-11.7l20.2,11.7
						c1.6,0.9,4.3,0.8,6.2-0.3C98.5,355.1,98.7,353.5,97.1,352.6z"/>
					<path id="XMLID_4242_" class="st8" d="M97.1,352.6L76.9,341l20.2-11.7c0.7-0.4,1-1,1-1.5c0-0.7-0.4-1.4-1.5-2
						c-1.8-1.1-4.6-1.2-6.2-0.3l-20.2,11.7L50,325.5c-1.6-0.9-4.3-0.8-6.2,0.3c-1.8,1.1-2,2.6-0.4,3.6L63.7,341l-20.2,11.7
						c-0.7,0.4-0.9,0.9-1,1.4c0,0.1-0.1,0.2-0.1,0.3l0,0c0.1,0.6,0.6,1.3,1.5,1.8c1.8,1.1,4.6,1.2,6.2,0.3l20.2-11.7l20.2,11.7
						c1.6,0.9,4.3,0.8,6.2-0.3C98.5,355.1,98.7,353.5,97.1,352.6z"/>
					
						<linearGradient id="XMLID_15_" gradientUnits="userSpaceOnUse" x1="43.083" y1="31.75" x2="95.1719" y2="31.75" gradientTransform="matrix(1 0 0 1 0 307)">
						<stop  offset="0" style="stop-color:#FFFFFF;stop-opacity:0"/>
						<stop  offset="1" style="stop-color:#90A4AE"/>
					</linearGradient>
					<polygon id="XMLID_4241_" class="st9" points="76.9,341 83.6,337.1 87,335.2 73.8,335.2 70.3,337.1 70.3,337.1 70.3,342.3 
						79.3,342.3 					"/>
				</g>
			</g>
			<path id="XMLID_4238_" class="st10" d="M70.3,342.3L70.3,342.3c3.2,0,5.8-2.6,5.8-5.8v-23H64.5v23
				C64.5,339.7,67.1,342.3,70.3,342.3z"/>
			
				<linearGradient id="XMLID_16_" gradientUnits="userSpaceOnUse" x1="70.3" y1="30.7106" x2="70.3" y2="6.5794" gradientTransform="matrix(1 0 0 1 0 307)">
				<stop  offset="0" style="stop-color:#FFFFFF;stop-opacity:0"/>
				<stop  offset="1" style="stop-color:#90A4AE"/>
			</linearGradient>
			<path id="XMLID_4237_" class="st11" d="M70.3,342.3L70.3,342.3c3.2,0,5.8-2.6,5.8-5.8v-23H64.5v23
				C64.5,339.7,67.1,342.3,70.3,342.3z"/>
		</g>
		<path id="XMLID_4235_" class="st6" d="M16.2,284.2l23.8-0.9l22.5-13c3.7-2.2,9.4-2.4,12.7-0.5L95,281.3l21.1-0.8v15.1l0,0
			c-0.1,1.4-1.1,2.8-3.1,3.9l-43.1,24.9c-3.7,2.2-9.4,2.4-12.7,0.5l-38.8-22.4c-1.4-0.8-2.1-1.9-2.1-3l0,0v-15.3H16.2z"/>
		
			<linearGradient id="XMLID_17_" gradientUnits="userSpaceOnUse" x1="46.0617" y1="20.8532" x2="82.8807" y2="-48.1297" gradientTransform="matrix(1 0 0 1 0 307)">
			<stop  offset="0" style="stop-color:#FFFFFF;stop-opacity:0"/>
			<stop  offset="1" style="stop-color:#90A4AE"/>
		</linearGradient>
		<path id="XMLID_4234_" class="st12" d="M16.2,284.2l23.8-0.9l22.5-13c3.7-2.2,9.4-2.4,12.7-0.5L95,281.3l21.1-0.8v15.1l0,0
			c-0.1,1.4-1.1,2.8-3.1,3.9l-43.1,24.9c-3.7,2.2-9.4,2.4-12.7,0.5l-38.8-22.4c-1.4-0.8-2.1-1.9-2.1-3l0,0v-15.3H16.2z"/>
		<path id="XMLID_4233_" class="st8" d="M18.4,287.4l38.8,22.4c3.2,1.9,8.9,1.6,12.7-0.5l43.1-24.9c3.7-2.2,4.2-5.4,0.9-7.3
			l-38.8-22.4c-3.2-1.9-8.9-1.6-12.7,0.5l-43.1,24.9C15.6,282.3,15.2,285.5,18.4,287.4z"/>
		
			<linearGradient id="XMLID_18_" gradientUnits="userSpaceOnUse" x1="56.6345" y1="21.7234" x2="73.5629" y2="-60.8022" gradientTransform="matrix(1 0 0 1 0 307)">
			<stop  offset="0" style="stop-color:#FFFFFF;stop-opacity:0"/>
			<stop  offset="1" style="stop-color:#90A4AE"/>
		</linearGradient>
		<path id="XMLID_4232_" class="st13" d="M18.4,287.4l38.8,22.4c3.2,1.9,8.9,1.6,12.7-0.5l43.1-24.9c3.7-2.2,4.2-5.4,0.9-7.3
			l-38.8-22.4c-3.2-1.9-8.9-1.6-12.7,0.5l-43.1,24.9C15.6,282.3,15.2,285.5,18.4,287.4z"/>
	</g>
	<path id="XMLID_4230_" class="st5" d="M22.5,260.4c0,0,0.5,36.9,42.1,36.9c18.4,0,58.5-31,58.5-31s4.5-14-5.7-21.3
		S81,226.3,81,226.3L22.5,260.4z"/>
	<polygon id="XMLID_4229_" class="st6" points="25.1,279.5 19.2,282.9 19.2,195 25.1,191.5 	"/>
	<polygon id="XMLID_4228_" class="st14" points="258.5,324 264.5,327.4 264.5,239.5 258.5,236.1 	"/>
	<polygon id="XMLID_4226_" class="st15" points="180.4,280.2 13.2,183.6 103.3,131.6 270.5,228.2 	"/>
	
		<linearGradient id="XMLID_19_" gradientUnits="userSpaceOnUse" x1="240.9" y1="-82.95" x2="270.5" y2="-82.95" gradientTransform="matrix(1 0 0 1 0 307)">
		<stop  offset="0" style="stop-color:#AD68A4"/>
		<stop  offset="0.1251" style="stop-color:#B271AA;stop-opacity:0.8749"/>
		<stop  offset="0.3312" style="stop-color:#C08AB9;stop-opacity:0.6688"/>
		<stop  offset="0.5928" style="stop-color:#D6B3D1;stop-opacity:0.4072"/>
		<stop  offset="0.8967" style="stop-color:#F4EAF3;stop-opacity:0.1033"/>
		<stop  offset="1" style="stop-color:#FFFFFF;stop-opacity:0"/>
	</linearGradient>
	<polygon id="XMLID_1076_" class="st16" points="240.9,232 263.4,232 270.5,228.2 249.7,216.1 	"/>
	
		<linearGradient id="XMLID_20_" gradientUnits="userSpaceOnUse" x1="82.1" y1="-149.8" x2="134.6" y2="-149.8" gradientTransform="matrix(1 0 0 1 0 307)">
		<stop  offset="0" style="stop-color:#AD68A4"/>
		<stop  offset="0.1251" style="stop-color:#B271AA;stop-opacity:0.8749"/>
		<stop  offset="0.3312" style="stop-color:#C08AB9;stop-opacity:0.6688"/>
		<stop  offset="0.5928" style="stop-color:#D6B3D1;stop-opacity:0.4072"/>
		<stop  offset="0.8967" style="stop-color:#F4EAF3;stop-opacity:0.1033"/>
		<stop  offset="1" style="stop-color:#FFFFFF;stop-opacity:0"/>
	</linearGradient>
	<polygon id="XMLID_1071_" class="st17" points="82.1,159 99.5,159 103.4,171.1 134.6,171.1 134.6,155.1 101.1,143.3 	"/>
	<g id="XMLID_4217_">
		<polygon id="XMLID_4224_" class="st8" points="194.9,267.7 164.7,250.3 204.6,227.2 234.8,244.7 		"/>
		<polygon id="XMLID_4223_" class="st18" points="195.9,263.1 165.7,245.6 205.6,222.6 235.8,240 		"/>
		<g id="XMLID_4218_">
			<line id="XMLID_4222_" class="st19" x1="204.3" y1="227.1" x2="226.5" y2="239.9"/>
			<line id="XMLID_4221_" class="st19" x1="200.8" y1="229.7" x2="222.9" y2="242.5"/>
			<line id="XMLID_4220_" class="st19" x1="197.2" y1="232.2" x2="219.3" y2="245"/>
			<line id="XMLID_4219_" class="st19" x1="193.6" y1="234.8" x2="215.8" y2="247.6"/>
		</g>
	</g>
	<g id="XMLID_2255_">
		<polygon id="XMLID_2261_" class="st20" points="101.7,140 75.3,155.1 75.3,113.3 101.7,98.2 		"/>
		<polygon id="XMLID_2260_" class="st21" points="82.1,159 74.5,154.6 74.5,112.8 82.1,117.2 		"/>
		<polygon id="XMLID_2259_" class="st20" points="108.5,143.9 82.1,159 82.1,117.2 108.5,102.1 		"/>
		
			<linearGradient id="XMLID_21_" gradientUnits="userSpaceOnUse" x1="83.2587" y1="-192.4579" x2="107.2455" y2="-160.5695" gradientTransform="matrix(1 0 0 1 0 307)">
			<stop  offset="0" style="stop-color:#FFFFFF;stop-opacity:0"/>
			<stop  offset="0.1602" style="stop-color:#EDDCE3;stop-opacity:0.1602"/>
			<stop  offset="0.4447" style="stop-color:#CFA5B5;stop-opacity:0.4447"/>
			<stop  offset="0.6898" style="stop-color:#BA7C94;stop-opacity:0.6898"/>
			<stop  offset="0.8828" style="stop-color:#AD6380;stop-opacity:0.8828"/>
			<stop  offset="1" style="stop-color:#A85A78"/>
		</linearGradient>
		<polygon id="XMLID_2258_" class="st22" points="108.5,143.9 82.1,159 82.1,117.2 108.5,102.1 		"/>
		<polygon id="XMLID_2257_" class="st23" points="108.5,102.1 107.6,101.6 82.1,116.2 76.3,112.8 101.7,98.2 100.8,97.7 75.4,112.3 
			75.4,112.3 74.5,112.8 75.3,113.3 75.4,113.3 82.1,117.2 83.1,116.7 83,116.7 		"/>
		<polygon id="XMLID_2256_" class="st18" points="78,113.8 101.7,100.2 105.8,102.6 82.1,116.2 		"/>
	</g>
	<g id="XMLID_2248_">
		<polygon id="XMLID_2254_" class="st24" points="114,147.1 93.8,158.7 93.8,121.1 114,109.5 		"/>
		<polygon id="XMLID_2253_" class="st25" points="100.7,162.6 93,158.2 93,120.5 100.7,125 		"/>
		<polygon id="XMLID_2252_" class="st24" points="120.9,151 100.7,162.6 100.7,125 120.9,113.4 		"/>
		
			<linearGradient id="XMLID_22_" gradientUnits="userSpaceOnUse" x1="100.183" y1="-174.6931" x2="119.6547" y2="-164.2518" gradientTransform="matrix(1 0 0 1 0 307)">
			<stop  offset="0" style="stop-color:#FFFFFF;stop-opacity:0"/>
			<stop  offset="4.078156e-02" style="stop-color:#FFFAF3;stop-opacity:4.078156e-02"/>
			<stop  offset="0.3046" style="stop-color:#FDDDAC;stop-opacity:0.3046"/>
			<stop  offset="0.5418" style="stop-color:#FCC574;stop-opacity:0.5418"/>
			<stop  offset="0.744" style="stop-color:#FBB44B;stop-opacity:0.744"/>
			<stop  offset="0.9033" style="stop-color:#FAAA32;stop-opacity:0.9033"/>
			<stop  offset="1" style="stop-color:#FAA629"/>
		</linearGradient>
		<polygon id="XMLID_2251_" class="st26" points="120.9,151 100.7,162.6 100.7,125 120.9,113.4 		"/>
		<polygon id="XMLID_2250_" class="st27" points="120.9,113.4 120,112.9 100.7,123.9 94.8,120.6 114,109.5 113.2,109 93.9,120 
			93.9,120 93,120.6 93.8,121.1 93.9,121.1 100.7,125 101.6,124.5 101.6,124.5 		"/>
		<polygon id="XMLID_2249_" class="st18" points="96.5,121.6 114,111.5 118.2,113.9 100.7,123.9 		"/>
	</g>
	<g id="XMLID_2241_">
		<polygon id="XMLID_2247_" class="st28" points="122.8,152.1 96.6,167.2 96.6,140.4 122.8,125.3 		"/>
		<polygon id="XMLID_2246_" class="st29" points="103.4,171.1 95.7,166.7 95.7,139.9 103.4,144.3 		"/>
		<polygon id="XMLID_2245_" class="st28" points="129.6,156 103.4,171.1 103.4,144.3 129.6,129.2 		"/>
		
			<linearGradient id="XMLID_23_" gradientUnits="userSpaceOnUse" x1="103.4" y1="-156.85" x2="129.5505" y2="-156.85" gradientTransform="matrix(1 0 0 1 0 307)">
			<stop  offset="0" style="stop-color:#FFFFFF;stop-opacity:0"/>
			<stop  offset="0.2348" style="stop-color:#C6E6E7;stop-opacity:0.2348"/>
			<stop  offset="0.4939" style="stop-color:#8FCDD0;stop-opacity:0.4939"/>
			<stop  offset="0.7172" style="stop-color:#66BABF;stop-opacity:0.7172"/>
			<stop  offset="0.8932" style="stop-color:#4DAFB5;stop-opacity:0.8932"/>
			<stop  offset="1" style="stop-color:#44ABB1"/>
		</linearGradient>
		<polygon id="XMLID_2244_" class="st30" points="129.6,156 103.4,171.1 103.4,144.3 129.6,129.2 		"/>
		<polygon id="XMLID_2243_" class="st31" points="129.6,129.2 128.7,128.7 103.4,143.3 97.5,139.9 122.8,125.3 121.9,124.8 
			96.6,139.4 96.6,139.4 95.7,139.9 96.6,140.4 96.7,140.4 103.4,144.3 104.3,143.8 104.3,143.8 		"/>
		<polygon id="XMLID_2242_" class="st18" points="99.3,140.9 122.8,127.4 126.9,129.7 103.4,143.3 		"/>
	</g>
	
		<linearGradient id="XMLID_24_" gradientUnits="userSpaceOnUse" x1="131.0117" y1="-86.3713" x2="171.8173" y2="-166.9273" gradientTransform="matrix(1 0 0 1 0 307)">
		<stop  offset="0" style="stop-color:#AD68A4"/>
		<stop  offset="0.1251" style="stop-color:#B271AA;stop-opacity:0.8749"/>
		<stop  offset="0.3312" style="stop-color:#C08AB9;stop-opacity:0.6688"/>
		<stop  offset="0.5928" style="stop-color:#D6B3D1;stop-opacity:0.4072"/>
		<stop  offset="0.8967" style="stop-color:#F4EAF3;stop-opacity:0.1033"/>
		<stop  offset="1" style="stop-color:#FFFFFF;stop-opacity:0"/>
	</linearGradient>
	<path id="XMLID_4216_" class="st32" d="M151.7,183.5l-28.4-16.3c-0.9-0.5-1-1.8-0.2-2.4l8.3-6.4l49.7,35.1L151.7,183.5z"/>
	<g id="XMLID_4089_">
		
			<linearGradient id="XMLID_25_" gradientUnits="userSpaceOnUse" x1="155.4624" y1="-74.2762" x2="208.58" y2="-70.4067" gradientTransform="matrix(1 0 0 1 0 307)">
			<stop  offset="0" style="stop-color:#AD68A4"/>
			<stop  offset="0.1251" style="stop-color:#B271AA;stop-opacity:0.8749"/>
			<stop  offset="0.3312" style="stop-color:#C08AB9;stop-opacity:0.6688"/>
			<stop  offset="0.5928" style="stop-color:#D6B3D1;stop-opacity:0.4072"/>
			<stop  offset="0.8967" style="stop-color:#F4EAF3;stop-opacity:0.1033"/>
			<stop  offset="1" style="stop-color:#FFFFFF;stop-opacity:0"/>
		</linearGradient>
		<path id="XMLID_4094_" class="st33" d="M190.8,230.6l-5.2-2.9l-17,13.2h8.5c2.8,0,5.6-0.7,8-2.2l5.6-3.3
			C192.7,234.3,192.7,231.7,190.8,230.6z"/>
		<path id="XMLID_4093_" class="st18" d="M185.6,224.1l-7.2-4.2c-1.7-1-3.8-1.2-5.7-0.5l-7.4,2.8c-1.8,0.7-3.3,1.7-4.6,3.1
			c-2,2.2-3.1,5.1-3.1,8.1c0,0.8,0.4,1.5,1.1,1.9l8.8,5.1c0.8,0.5,1.7,0.5,2.5,0l0.5-0.3l-1.8-1.2c0.2-2.6,1.3-5.1,3.1-7.1
			c1.3-1.4,2.9-2.5,4.6-3.1l8.6-3.2l1.8,1.4v-0.7C186.8,225.3,186.4,224.5,185.6,224.1z"/>
		<path id="XMLID_4092_" class="st34" d="M176.4,228.7l8.9-3.3c0.7-0.3,1.5,0.3,1.5,1v3.2c0,0.7-0.4,1.3-0.9,1.6l-16.1,9.3
			c-0.5,0.3-1.1-0.1-1.1-0.6l0,0c0-3,1.1-5.9,3.1-8.1l0,0C173.1,230.4,174.7,229.4,176.4,228.7z"/>
		<polygon id="XMLID_4091_" class="st35" points="180.4,221.1 171.6,223.6 172,223.9 180.8,221.3 		"/>
		<path id="XMLID_4090_" class="st35" d="M177.3,220.9l-4.1,1.2c-0.3,0.1-0.4,0.3-0.5,0.5l0,0c-0.1,0.3,0.1,0.6,0.3,0.7l0.6,0.4
			c0.2,0.1,0.4,0.1,0.5,0.1l4.1-1.2c0.3-0.1,0.4-0.3,0.5-0.5l0,0c0.1-0.3-0.1-0.6-0.3-0.7l-0.6-0.4
			C177.7,220.8,177.5,220.8,177.3,220.9z"/>
	</g>
	
		<linearGradient id="XMLID_26_" gradientUnits="userSpaceOnUse" x1="185.8802" y1="-58.5778" x2="226.6857" y2="-139.1335" gradientTransform="matrix(1 0 0 1 0 307)">
		<stop  offset="0" style="stop-color:#AD68A4"/>
		<stop  offset="0.1251" style="stop-color:#B271AA;stop-opacity:0.8749"/>
		<stop  offset="0.3312" style="stop-color:#C08AB9;stop-opacity:0.6688"/>
		<stop  offset="0.5928" style="stop-color:#D6B3D1;stop-opacity:0.4072"/>
		<stop  offset="0.8967" style="stop-color:#F4EAF3;stop-opacity:0.1033"/>
		<stop  offset="1" style="stop-color:#FFFFFF;stop-opacity:0"/>
	</linearGradient>
	<path id="XMLID_4088_" class="st36" d="M158.2,209.3h3.7c3.3,0,6.6-0.9,9.5-2.5l10.6-5.9l42.9,24.8c2.6,1.5,5.9,1.5,8.5,0l16.3-9.5
		L183,177.7L158.2,209.3z"/>
	<g id="XMLID_4084_">
		<polygon id="XMLID_4087_" class="st37" points="180.4,280.2 180.4,288.1 270.5,236.1 270.5,228.2 		"/>
		<polygon id="XMLID_4086_" class="st37" points="186.3,372.6 186.3,284.6 180.4,288.1 180.4,376 		"/>
		<polygon id="XMLID_4085_" class="st37" points="264.5,327.4 270.5,324 270.5,236.1 264.5,239.5 		"/>
	</g>
	<g id="XMLID_4077_">
		<polygon id="XMLID_4079_" class="st14" points="13.2,183.6 13.2,191.5 13.2,279.5 19.2,282.9 19.2,195 180.4,288.1 180.4,280.2 		
			"/>
		<polygon id="XMLID_4078_" class="st14" points="174.4,372.6 180.4,376 180.4,288.1 174.4,284.6 		"/>
	</g>
	
		<linearGradient id="XMLID_27_" gradientUnits="userSpaceOnUse" x1="30.8555" y1="-58.8562" x2="176.7125" y2="-84.1459" gradientTransform="matrix(1 0 0 1 0 307)">
		<stop  offset="0" style="stop-color:#AD68A4"/>
		<stop  offset="0.1251" style="stop-color:#B271AA;stop-opacity:0.8749"/>
		<stop  offset="0.3312" style="stop-color:#C08AB9;stop-opacity:0.6688"/>
		<stop  offset="0.5928" style="stop-color:#D6B3D1;stop-opacity:0.4072"/>
		<stop  offset="0.8967" style="stop-color:#F4EAF3;stop-opacity:0.1033"/>
		<stop  offset="1" style="stop-color:#FFFFFF;stop-opacity:0"/>
	</linearGradient>
	<path id="XMLID_1320_" class="st38" d="M100.6,201.9c0.6,0.1,54.5,15.6,54.5,15.6l7.2,4.8l-0.6,14.9l-23.6,18.6v7.9l-44.4-25.6
		L100.6,201.9z"/>
	<g id="XMLID_4095_">
		<polygon id="XMLID_4215_" class="st39" points="155.2,214.2 155.2,217.5 136.7,228.2 136.7,224.9 		"/>
		<polygon id="XMLID_4214_" class="st34" points="136.7,224.9 136.7,228.2 88,200.1 88,196.8 		"/>
		<polygon id="XMLID_4213_" class="st18" points="155.2,214.2 136.7,224.9 88,196.8 106.5,186.1 		"/>
		<g id="XMLID_4096_">
			<g id="XMLID_4206_" class="st40">
				<g id="XMLID_4211_">
					<polygon id="XMLID_4212_" class="st41" points="114,192.7 114,193.7 110.4,195.8 110.4,194.8 					"/>
				</g>
				<g id="XMLID_4209_">
					<polygon id="XMLID_4210_" class="st39" points="110.4,194.8 110.4,195.8 103.1,191.6 103.1,190.6 					"/>
				</g>
				<g id="XMLID_4207_">
					<polygon id="XMLID_4208_" class="st35" points="114,192.7 110.4,194.8 103.1,190.6 106.8,188.5 					"/>
				</g>
			</g>
			<g id="XMLID_4199_" class="st40">
				<g id="XMLID_4204_">
					<polygon id="XMLID_4205_" class="st41" points="109,195.6 109,196.6 105.3,198.7 105.3,197.7 					"/>
				</g>
				<g id="XMLID_4202_">
					<polygon id="XMLID_4203_" class="st39" points="105.3,197.7 105.3,198.7 98.1,194.5 98.1,193.5 					"/>
				</g>
				<g id="XMLID_4200_">
					<polygon id="XMLID_4201_" class="st35" points="109,195.6 105.3,197.7 98.1,193.5 101.7,191.4 					"/>
				</g>
			</g>
			<g id="XMLID_4192_" class="st40">
				<g id="XMLID_4197_">
					<polygon id="XMLID_4198_" class="st42" points="101.1,196.9 101.1,197.9 97.4,200 97.4,199 					"/>
				</g>
				<g id="XMLID_4195_">
					<polygon id="XMLID_4196_" class="st42" points="97.4,199 97.4,200 93,197.5 93,196.5 					"/>
				</g>
				<g id="XMLID_4193_">
					<polygon id="XMLID_4194_" class="st43" points="101.1,196.9 97.4,199 93,196.5 96.7,194.4 					"/>
				</g>
			</g>
			<g id="XMLID_4185_" class="st40">
				<g id="XMLID_4190_">
					<polygon id="XMLID_4191_" class="st41" points="119.7,196 119.7,197 116.1,199.1 116.1,198.1 					"/>
				</g>
				<g id="XMLID_4188_">
					<polygon id="XMLID_4189_" class="st39" points="116.1,198.1 116.1,199.1 111.9,196.7 111.9,195.7 					"/>
				</g>
				<g id="XMLID_4186_">
					<polygon id="XMLID_4187_" class="st35" points="119.7,196 116.1,198.1 111.9,195.7 115.6,193.6 					"/>
				</g>
			</g>
			<g id="XMLID_2204_" class="st40">
				<g id="XMLID_4183_">
					<polygon id="XMLID_4184_" class="st41" points="114.7,198.9 114.7,199.9 111.1,202 111.1,201 					"/>
				</g>
				<g id="XMLID_4181_">
					<polygon id="XMLID_4182_" class="st39" points="111.1,201 111.1,202 106.9,199.6 106.9,198.6 					"/>
				</g>
				<g id="XMLID_4179_">
					<polygon id="XMLID_4180_" class="st35" points="114.7,198.9 111.1,201 106.9,198.6 110.5,196.5 					"/>
				</g>
			</g>
			<g id="XMLID_4171_" class="st40">
				<g id="XMLID_2201_">
					<polygon id="XMLID_2202_" class="st41" points="125.3,199.2 125.3,200.2 121.7,202.3 121.7,201.3 					"/>
				</g>
				<g id="XMLID_4174_">
					<polygon id="XMLID_4175_" class="st39" points="121.7,201.3 121.7,202.3 117.5,199.9 117.5,198.9 					"/>
				</g>
				<g id="XMLID_4172_">
					<polygon id="XMLID_4173_" class="st35" points="125.3,199.2 121.7,201.3 117.5,198.9 121.2,196.8 					"/>
				</g>
			</g>
			<g id="XMLID_4164_" class="st40">
				<g id="XMLID_4169_">
					<polygon id="XMLID_4170_" class="st41" points="120.3,202.2 120.3,203.2 116.7,205.3 116.7,204.3 					"/>
				</g>
				<g id="XMLID_4167_">
					<polygon id="XMLID_4168_" class="st39" points="116.7,204.3 116.7,205.3 112.5,202.9 112.5,201.9 					"/>
				</g>
				<g id="XMLID_4165_">
					<polygon id="XMLID_4166_" class="st35" points="120.3,202.2 116.7,204.3 112.5,201.9 116.1,199.7 					"/>
				</g>
			</g>
			<g id="XMLID_4157_" class="st40">
				<g id="XMLID_4162_">
					<polygon id="XMLID_4163_" class="st41" points="130.9,202.4 130.9,203.4 127.2,205.5 127.2,204.5 					"/>
				</g>
				<g id="XMLID_4160_">
					<polygon id="XMLID_4161_" class="st39" points="127.2,204.5 127.2,205.5 123,203.1 123,202.1 					"/>
				</g>
				<g id="XMLID_4158_">
					<polygon id="XMLID_4159_" class="st35" points="130.9,202.4 127.2,204.5 123,202.1 126.7,200 					"/>
				</g>
			</g>
			<g id="XMLID_4150_" class="st40">
				<g id="XMLID_4155_">
					<polygon id="XMLID_4156_" class="st41" points="125.8,205.3 125.8,206.3 122.2,208.5 122.2,207.5 					"/>
				</g>
				<g id="XMLID_4153_">
					<polygon id="XMLID_4154_" class="st39" points="122.2,207.5 122.2,208.5 118,206 118,205 					"/>
				</g>
				<g id="XMLID_4151_">
					<polygon id="XMLID_4152_" class="st35" points="125.8,205.3 122.2,207.5 118,205 121.7,202.9 					"/>
				</g>
			</g>
			<g id="XMLID_4143_" class="st40">
				<g id="XMLID_4148_">
					<polygon id="XMLID_4149_" class="st41" points="136.5,205.7 136.5,206.6 132.8,208.8 132.8,207.8 					"/>
				</g>
				<g id="XMLID_4146_">
					<polygon id="XMLID_4147_" class="st39" points="132.8,207.8 132.8,208.8 128.6,206.3 128.6,205.4 					"/>
				</g>
				<g id="XMLID_4144_">
					<polygon id="XMLID_4145_" class="st35" points="136.5,205.7 132.8,207.8 128.6,205.4 132.3,203.2 					"/>
				</g>
			</g>
			<g id="XMLID_4136_" class="st40">
				<g id="XMLID_4141_">
					<polygon id="XMLID_4142_" class="st41" points="131.4,208.6 131.4,209.6 127.8,211.7 127.8,210.7 					"/>
				</g>
				<g id="XMLID_4139_">
					<polygon id="XMLID_4140_" class="st39" points="127.8,210.7 127.8,211.7 123.6,209.3 123.6,208.3 					"/>
				</g>
				<g id="XMLID_4137_">
					<polygon id="XMLID_4138_" class="st35" points="131.4,208.6 127.8,210.7 123.6,208.3 127.3,206.2 					"/>
				</g>
			</g>
			<g id="XMLID_4125_" class="st40">
				<g id="XMLID_4134_">
					<polygon id="XMLID_4135_" class="st41" points="144.3,210.2 144.3,211.2 139.2,214.1 139.2,213.1 					"/>
				</g>
				<g id="XMLID_4132_">
					<polygon id="XMLID_4133_" class="st39" points="131.9,213.1 131.9,214.1 129.3,212.5 129.3,211.5 					"/>
				</g>
				<g id="XMLID_4130_">
					<polygon id="XMLID_4131_" class="st39" points="135.6,215.2 135.6,216.2 131.9,214.1 131.9,213.1 					"/>
				</g>
				<g id="XMLID_4128_">
					<polygon id="XMLID_4129_" class="st41" points="139.2,213.1 139.2,214.1 135.6,216.2 135.6,215.2 					"/>
				</g>
				<g id="XMLID_4126_">
					<polygon id="XMLID_4127_" class="st35" points="144.3,210.2 139.2,213.1 135.6,215.2 131.9,213.1 129.3,211.5 132.9,209.4 
						135.6,211 140.6,208 					"/>
				</g>
			</g>
			<g id="XMLID_4118_" class="st40">
				<g id="XMLID_4123_">
					<polygon id="XMLID_4124_" class="st41" points="134.2,216 134.2,217 130.5,219.1 130.6,218.1 					"/>
				</g>
				<g id="XMLID_4121_">
					<polygon id="XMLID_4122_" class="st39" points="130.6,218.1 130.5,219.1 99.3,201.1 99.3,200.1 					"/>
				</g>
				<g id="XMLID_4119_">
					<polygon id="XMLID_4120_" class="st35" points="134.2,216 130.6,218.1 99.3,200.1 103,198 					"/>
				</g>
			</g>
			<g id="XMLID_4111_" class="st40">
				<g id="XMLID_4116_">
					<polygon id="XMLID_4117_" class="st41" points="150.1,213.5 150.1,214.5 146.5,216.6 146.5,215.6 					"/>
				</g>
				<g id="XMLID_4114_">
					<polygon id="XMLID_4115_" class="st39" points="146.5,215.6 146.5,216.6 142.3,214.2 142.3,213.2 					"/>
				</g>
				<g id="XMLID_4112_">
					<polygon id="XMLID_4113_" class="st35" points="150.1,213.5 146.5,215.6 142.3,213.2 145.9,211.1 					"/>
				</g>
			</g>
			<g id="XMLID_4104_" class="st40">
				<g id="XMLID_4109_">
					<polygon id="XMLID_4110_" class="st41" points="145.1,216.5 145.1,217.5 141.4,219.6 141.4,218.6 					"/>
				</g>
				<g id="XMLID_4107_">
					<polygon id="XMLID_4108_" class="st39" points="141.4,218.6 141.4,219.6 137.3,217.2 137.3,216.2 					"/>
				</g>
				<g id="XMLID_4105_">
					<polygon id="XMLID_4106_" class="st35" points="145.1,216.5 141.4,218.6 137.3,216.2 140.9,214 					"/>
				</g>
			</g>
			<g id="XMLID_4097_" class="st40">
				<g id="XMLID_4102_">
					<polygon id="XMLID_4103_" class="st41" points="140,219.4 140,220.4 136.4,222.5 136.4,221.5 					"/>
				</g>
				<g id="XMLID_4100_">
					<polygon id="XMLID_4101_" class="st39" points="136.4,221.5 136.4,222.5 132.2,220.1 132.2,219.1 					"/>
				</g>
				<g id="XMLID_4098_">
					<polygon id="XMLID_4099_" class="st35" points="140,219.4 136.4,221.5 132.2,219.1 135.9,217 					"/>
				</g>
			</g>
		</g>
	</g>
	<path id="XMLID_4073_" class="st44" d="M133.2,197.5l17.5,10.1c4.3,2.5,11.3,2.2,14.9-0.6l19.9-16.1l-23.4-13.5l-27.9,11.5
		C129.5,191,129,195.1,133.2,197.5z"/>
	<path id="XMLID_4072_" class="st34" d="M133.2,197.5l17.5,10.1c4.3,2.5,11.3,2.2,14.9-0.6l19.9-16.1l-23.4-13.5l-27.9,11.5
		C129.5,191,129,195.1,133.2,197.5z"/>
	<path id="XMLID_4071_" class="st34" d="M114.6,152.1l11.7-85c0.2-1.3,4.6-3.9,7.6-2.3l101.4,58.5c1.4,0.8,2.2,2.4,1.9,4.1
		l-13.6,84.4c-0.3,2-2,3.3-3.8,3.3l0,0h-2.9l0.9-0.5h-0.1l-101.2-58.5C115.1,155.3,114.3,153.7,114.6,152.1z"/>
	<path id="XMLID_4070_" class="st18" d="M215,215.8l-101.2-58.5c-1.4-0.8-2.2-2.4-1.9-4.1l13.4-84.5c0.4-2.7,3.5-4.2,5.9-2.8
		l101.4,58.5c1.4,0.8,2.2,2.4,1.9,4.1L220.9,213C220.5,215.7,217.4,217.2,215,215.8z"/>
	<path id="XMLID_4069_" class="st45" d="M215,208.4l-96.4-55.7c-0.9-0.5-1.3-1.5-1.2-2.5l12-75.6c0.3-1.7,2.1-2.6,3.6-1.7l94.9,54.8
		c0.9,0.5,1.3,1.5,1.2,2.5l-12.5,77.6C216.4,208.4,215.6,208.8,215,208.4z"/>
	<path id="XMLID_4068_" class="st46" d="M120.2,151.9c-0.9-0.5-1.3-1.5-1.2-2.5l12-75.6c0.1-0.5,0.3-0.9,0.6-1.2c-1,0.1-2,0.9-2.2,2
		l-12,75.6c-0.2,1,0.3,2,1.2,2.5l96.4,55.7c0.6,0.4,1.4,0,1.5-0.7v-0.1L120.2,151.9z"/>
	<g id="XMLID_4050_">
		<line id="XMLID_4053_" class="st47" x1="216.8" y1="132.7" x2="219.7" y2="134.4"/>
		<line id="XMLID_4052_" class="st47" x1="211.1" y1="129.4" x2="213.6" y2="130.9"/>
		<line id="XMLID_4051_" class="st47" x1="205" y1="125.9" x2="207.6" y2="127.4"/>
	</g>
	<path id="XMLID_4049_" class="st48" d="M87.7,102.8c0,0,15.4,35.5-11.1,45.7S87.7,102.8,87.7,102.8z"/>
	<path id="XMLID_4048_" class="st48" d="M152.7,222.2c0.1-0.2,0.2-0.3,0.5-0.5c1.2-0.8,2.4-1.5,3.7-2.2c1.9-1,4.2-2.2,6.4-1.9
		c2.6,0.4,11.7,3.2,13.3,4.7c0.9,0.9,0.4,2.2-0.5,3c-1.2,1.2-2.9,1.7-4.5,2.1c-1.9,0.4-4.3,0.4-5.6,2c-1.6,1.8-3.2,3.5-5.2,4.8
		c-0.8,0.5-1.7,1-2.6,1.3c-0.9,0.2-2.4,0.4-2.8-0.5c-0.5-1.1-0.8-2.3-1.3-3.4c-0.9-2.2-2-4.4-1.9-6.8c0-0.6,0.3-1.2,0.4-1.8
		C152.6,222.6,152.6,222.4,152.7,222.2z"/>
	<path id="XMLID_4047_" class="st18" d="M78.4,155c0,0,21.8,17.3,25.4,41.9c3.6,24.5,5.3,27.3,10.7,27.3c6.2-0.1,31.4-2.3,37.5-2.9
		c0,0,9.8,5.7,3.5,16.4c0,0-39.6,15.8-51.8,15.8c-17.5,0-21.5-27.1-21.5-27.1s5,6.7,3.4,22.2c0,0-24.1,20-60.5,2.3
		c0,0-6.7-70,5.9-93.3C43.6,134.2,78.4,155,78.4,155z"/>
	<path id="XMLID_4046_" class="st49" d="M87.7,102.8c0,0,2.9,0.9,4.5,6.5c0,0,7.2-15.2-13.7-26.8c-8.1-4.5-15.4-6-24-2.6
		c-9.1,3.6-16.7,8.2-21.2,17.3c-11,22.1,0.2,48.1,23.6,55.4c3.9,1.2,8.1,1.8,12.1,0.9c13.9-3.3,6.7-21.8,12.2-32.1
		C89.2,106.8,87.7,102.8,87.7,102.8z"/>
	<path id="XMLID_4045_" class="st6" d="M5,188.8c0,0,11-7.6,22.1-4.4s45.5,18.8,45.5,34.7c0,12.5,0,39.3,0,43.8
		c0,4.6-3,12.5-16.5,15.3L5,188.8z"/>
	
		<linearGradient id="XMLID_28_" gradientUnits="userSpaceOnUse" x1="38.8" y1="-98.1561" x2="38.8" y2="-29.2768" gradientTransform="matrix(1 0 0 1 0 307)">
		<stop  offset="0" style="stop-color:#FFFFFF;stop-opacity:0"/>
		<stop  offset="1" style="stop-color:#90A4AE"/>
	</linearGradient>
	<path id="XMLID_4044_" class="st50" d="M5,188.8c0,0,11-7.6,22.1-4.4s45.5,18.8,45.5,34.7c0,12.5,0,39.3,0,43.8
		c0,4.6-3,12.5-16.5,15.3L5,188.8z"/>
	<path id="XMLID_4043_" class="st10" d="M9.9,253.2l42.2,24.4c3.7,2.2,6.8-0.1,6.8-5.1v-46.4c0-5-3-10.8-6.8-12.9L9.9,188.8
		c-3.7-2.2-6.8,0.1-6.8,5.1v46.4C3.1,245.3,6.2,251,9.9,253.2z"/>
	<path id="XMLID_4042_" class="st6" d="M25.9,239.8l5.8,3.3c2.5,1.5,4.6-0.1,4.6-3.5v-5c0-3.4-2.1-7.3-4.6-8.8l-5.8-3.3
		c-2.5-1.5-4.6,0.1-4.6,3.5v5C21.3,234.4,23.4,238.4,25.9,239.8z"/>
	<g id="XMLID_4037_">
		<path id="XMLID_4041_" class="st8" d="M23.8,226c0,0-10.9,4.4-10.9,23v42c0,12.1,9.8,21.9,21.9,21.9h7.7v-7.2l-14.6-8.3
			c0,0,0-35.1,0-43.1s2.4-12.7,5-14.5C32.9,239.8,35.2,228.1,23.8,226z"/>
		
			<linearGradient id="XMLID_29_" gradientUnits="userSpaceOnUse" x1="27.7" y1="-69.4837" x2="27.7" y2="25.7306" gradientTransform="matrix(1 0 0 1 0 307)">
			<stop  offset="0" style="stop-color:#FFFFFF;stop-opacity:0"/>
			<stop  offset="1" style="stop-color:#90A4AE"/>
		</linearGradient>
		<path id="XMLID_4040_" class="st51" d="M23.8,226c0,0-10.9,4.4-10.9,23v42c0,12.1,9.8,21.9,21.9,21.9h7.7v-7.2l-14.6-8.3
			c0,0,0-35.1,0-43.1s2.4-12.7,5-14.5C32.9,239.8,35.2,228.1,23.8,226z"/>
		<path id="XMLID_4039_" class="st10" d="M42.5,305.6c0,0-14.6,0.8-14.6-8.3L42.5,305.6z"/>
		
			<linearGradient id="XMLID_30_" gradientUnits="userSpaceOnUse" x1="18.5278" y1="11.1222" x2="34.7325" y2="-5.0824" gradientTransform="matrix(1 0 0 1 0 307)">
			<stop  offset="0" style="stop-color:#FFFFFF;stop-opacity:0"/>
			<stop  offset="1" style="stop-color:#90A4AE"/>
		</linearGradient>
		<path id="XMLID_4038_" class="st52" d="M42.5,305.6c0,0-14.6,0.8-14.6-8.3L42.5,305.6z"/>
	</g>
	<circle id="XMLID_2196_" class="st48" cx="77.3" cy="129.1" r="6.9"/>
	<g id="XMLID_4550_">
		<g id="XMLID_4567_">
			<path id="XMLID_4548_" class="st53" d="M247.3,230.4c-3.7,2.2-9.8,2.2-13.5,0s-3.7-5.6,0-7.8s9.8-2.2,13.5,0
				C251.1,224.7,251.1,228.2,247.3,230.4z"/>
			<polygon id="XMLID_4547_" class="st53" points="231.1,226.5 229.1,214.8 252.1,214.8 250.1,226.5 			"/>
			<path id="XMLID_4546_" class="st54" d="M249,209.1c-4.6-2.7-12.2-2.7-16.8,0c-2.3,1.3-3.5,3.1-3.5,4.9l0,0v1.6
				c0,1.8,1.2,3.5,3.5,4.9c4.6,2.7,12.2,2.7,16.8,0c2.3-1.3,3.5-3.1,3.5-4.9V214C252.5,212.2,251.3,210.5,249,209.1z"/>
			<path id="XMLID_4545_" class="st53" d="M248.1,218.2c-4.1,2.3-10.8,2.1-15-0.3c-4.2-2.4-4.2-6.2-0.2-8.5c4.1-2.3,10.8-2.1,15,0.3
				C252.1,212.2,252.2,216,248.1,218.2z"/>
			<path id="XMLID_4544_" class="st55" d="M248,212.4c-4.2-2.4-10.9-2.5-15-0.3c-1.4,0.8-2.3,1.8-2.7,2.8c0.4,1.1,1.4,2.2,2.9,3
				c4.2,2.4,10.9,2.5,15,0.3c1.4-0.8,2.3-1.8,2.7-2.8C250.4,214.3,249.5,213.2,248,212.4z"/>
		</g>
		<g id="XMLID_4551_">
			<circle id="XMLID_4543_" class="st56" cx="240.6" cy="200.7" r="15.6"/>
			
				<linearGradient id="XMLID_31_" gradientUnits="userSpaceOnUse" x1="235.2883" y1="-114.6139" x2="250.0142" y2="-91.5647" gradientTransform="matrix(1 0 0 1 0 307)">
				<stop  offset="0" style="stop-color:#FFFFFF;stop-opacity:0"/>
				<stop  offset="0.269" style="stop-color:#BAD8BE;stop-opacity:0.269"/>
				<stop  offset="0.5183" style="stop-color:#82B989;stop-opacity:0.5183"/>
				<stop  offset="0.7309" style="stop-color:#59A263;stop-opacity:0.7309"/>
				<stop  offset="0.8984" style="stop-color:#40944C;stop-opacity:0.8984"/>
				<stop  offset="1" style="stop-color:#378F43"/>
			</linearGradient>
			<circle id="XMLID_2199_" class="st57" cx="240.6" cy="200.7" r="15.6"/>
			<path id="XMLID_4542_" class="st58" d="M227,207.3c0.3-0.5,1.1-0.7,1.6-0.4s0.7,1.1,0.4,1.6s-2.5,1.8-2.5,1.8
				S226.7,207.8,227,207.3z"/>
			<path id="XMLID_4465_" class="st58" d="M227.6,204.2c0.6,0.3,0.8,1,0.5,1.5c-0.3,0.6-1,0.8-1.5,0.5c-0.6-0.3-2.1-2.3-2.1-2.3
				S227.1,203.9,227.6,204.2z"/>
			<path id="XMLID_4464_" class="st58" d="M243.7,199.1c-0.3,0.6-1,0.8-1.6,0.5s-0.8-1-0.5-1.6s2.3-2,2.3-2S244,198.6,243.7,199.1z"
				/>
			<path id="XMLID_4463_" class="st58" d="M254.6,200.1c-0.6-0.1-1-0.7-0.9-1.4c0.1-0.6,0.7-1,1.4-0.9c0.6,0.1,2.5,1.7,2.5,1.7
				S255.3,200.3,254.6,200.1z"/>
			<path id="XMLID_4462_" class="st58" d="M255.1,196.5c-0.2,0.3-0.6,0.5-1,0.3c-0.3-0.2-0.5-0.6-0.3-1c0.2-0.3,1.5-1.2,1.5-1.2
				S255.3,196.2,255.1,196.5z"/>
			<path id="XMLID_4461_" class="st58" d="M240.9,197.7c0.1,0.4-0.2,0.8-0.6,0.8c-0.4,0.1-0.8-0.2-0.8-0.6c-0.1-0.4,0.4-1.9,0.4-1.9
				S240.8,197.3,240.9,197.7z"/>
			<path id="XMLID_4460_" class="st58" d="M245,211.1c-0.1-0.6,0.4-1.2,1-1.3s1.2,0.4,1.3,1s-0.8,3-0.8,3S245.1,211.7,245,211.1z"/>
			<path id="XMLID_4459_" class="st58" d="M248.1,210.7c-0.3-0.3-0.3-0.8,0-1c0.3-0.3,0.8-0.3,1,0c0.3,0.3,0.7,1.8,0.7,1.8
				S248.4,210.9,248.1,210.7z"/>
			<circle id="XMLID_4457_" class="st59" cx="232.6" cy="198.6" r="1.1"/>
			<circle id="XMLID_4456_" class="st59" cx="252.5" cy="204" r="1.1"/>
			<circle id="XMLID_4455_" class="st59" cx="227.8" cy="192.4" r="1.1"/>
			<circle id="XMLID_4454_" class="st59" cx="241.8" cy="205.7" r="1.7"/>
			<circle id="XMLID_4453_" class="st59" cx="233.2" cy="214.2" r="1.7"/>
			<circle id="XMLID_4374_" class="st59" cx="248.4" cy="194.2" r="1.5"/>
		</g>
	</g>
	<path id="XMLID_2_" class="st18" d="M279.1,174.5c-2,5.3-6.6,6.1-10.2,1.7c-3.6-4.4-4.9-12.3-2.9-17.7c2-5.3,6.6-6.1,10.2-1.7
		C279.8,161.2,281.1,169.2,279.1,174.5z"/>
	<g id="XMLID_3_">
		<path id="XMLID_66_" class="st60" d="M276.2,166c-0.3,2.2-1.9,2.9-3.7,1.6c-1.8-1.3-3-4.2-2.8-6.4s1.9-2.9,3.7-1.6
			C275.2,160.9,276.5,163.8,276.2,166z"/>
		<path id="XMLID_65_" class="st60" d="M272.5,167.6c-2.2-1.6-4.2-0.8-4.6,2l8,5.9C276.2,172.8,274.7,169.3,272.5,167.6z"/>
	</g>
	<polygon id="XMLID_1_" class="st61" points="198.3,189.3 135.5,154.2 144,100.1 207.6,135.8 	"/>
	<g id="XMLID_3980_" class="st62">
		<g id="XMLID_3984_">
			<circle id="XMLID_3986_" class="st63" cx="285.3" cy="157.6" r="8.2"/>
			<polygon id="XMLID_3985_" class="st63" points="280.1,161.2 277.1,165.7 283,164.1 			"/>
		</g>
	</g>
</g>
<line id="XMLID_8_" class="st64" x1="150.1" y1="120.2" x2="192.1" y2="144.4"/>
<line id="XMLID_7_" class="st64" x1="149.2" y1="123.7" x2="191.2" y2="148"/>
<line id="XMLID_6_" class="st64" x1="148.7" y1="127.4" x2="190.6" y2="151.6"/>
<line id="XMLID_5_" class="st64" x1="150.7" y1="116.6" x2="192.7" y2="140.9"/>
<line id="XMLID_9_" class="st64" x1="147.6" y1="130.9" x2="176.4" y2="147.5"/>
</svg>