<?xml version="1.0" encoding="utf-8"?>
<!-- Generator: Adobe Illustrator 21.1.0, SVG Export Plug-In . SVG Version: 6.00 Build 0)  -->
<svg version="1.1" id="Layer_1" xmlns="http://www.w3.org/2000/svg" xmlns:xlink="http://www.w3.org/1999/xlink" x="0px" y="0px"
	 viewBox="0 0 80 91" style="enable-background:new 0 0 80 91;" xml:space="preserve">
<style type="text/css">
	.st0{fill:none;stroke:#FFFFFF;stroke-width:2;stroke-miterlimit:10;}
	.st1{opacity:0.67;fill:#75ECEF;enable-background:new    ;}
	.st2{fill:#FFFFFF;stroke:#FFFFFF;stroke-width:0.75;stroke-miterlimit:10;}
</style>
<g id="XMLID_1336_">
	<path id="XMLID_1151_" class="st0" d="M15.2,24.6c0,0.9-0.7,1.3-1.5,0.8s-1.5-1.6-1.5-2.5s0.7-1.3,1.5-0.8
		C14.6,22.5,15.2,23.7,15.2,24.6z"/>
	<path id="XMLID_1160_" class="st0" d="M65.6,81.4c0,0.9-0.7,1.3-1.5,0.8s-1.5-1.6-1.5-2.5s0.7-1.3,1.5-0.8
		C64.9,79.3,65.6,80.5,65.6,81.4z"/>
	<path id="XMLID_1142_" class="st1" d="M55.1,68.7l-34-19.6c-0.5-0.3-0.8-0.9-0.8-1.5V12.7c0-1.3,1.4-2.1,2.5-1.5l33.3,19.2
		c1,0.6,1.6,1.6,1.6,2.7v34.1C57.6,68.5,56.2,69.4,55.1,68.7z"/>
	<g id="XMLID_1176_">
		<g>
			<path id="XMLID_41_" class="st2" d="M43.3,53.4c-1.5,0-3.1-0.5-4.8-1.5c-5.6-3.2-10.2-11.2-10.2-17.7c0-3.3,1.2-5.9,3.3-7.1
				s4.9-1,7.8,0.7C45,31,49.6,39,49.6,45.5c0,3.3-1.2,5.9-3.3,7.1C45.4,53.2,44.4,53.4,43.3,53.4z M34.6,28.2
				c-0.8,0-1.5,0.2-2.1,0.5c-1.6,0.9-2.4,2.9-2.4,5.6c0,5.9,4.2,13.2,9.3,16.1c2.3,1.3,4.5,1.6,6,0.7c1.6-0.9,2.4-2.9,2.4-5.6
				c0-5.9-4.2-13.2-9.3-16.1C37.1,28.7,35.8,28.2,34.6,28.2z"/>
			<polygon id="XMLID_40_" class="st2" points="36.4,44.7 36.4,32.2 43.8,42.8 			"/>
		</g>
	</g>
</g>
</svg>